<svg xmlns="http://www.w3.org/2000/svg" viewBox="0 0 600 400"><defs><style>.cls-1{isolation:isolate;}.cls-2{fill:#ffdb4d;opacity:0.4;mix-blend-mode:multiply;}.cls-3{fill:#333;}</style></defs><title>list-set-str03</title><g class="cls-1"><g id="Layer_1" data-name="Layer 1"><rect class="cls-2" y="29" width="600" height="190" rx="75"/><rect class="cls-2" x="205" y="90" width="395" height="279" rx="105"/><rect class="cls-2" y="90" width="395" height="279" rx="105"/><path class="cls-3" d="M50.06,244.61a7.07,7.07,0,0,1-.41,2.47,5.36,5.36,0,0,1-1.17,1.86,5.12,5.12,0,0,1-1.82,1.16,6.79,6.79,0,0,1-2.36.4,6.4,6.4,0,0,1-2.12-.31,4.45,4.45,0,0,1-1.35-.67v-1.44a5.21,5.21,0,0,0,1.63.82,6.23,6.23,0,0,0,1.73.24,4.37,4.37,0,0,0,3-1,4.25,4.25,0,0,0,1.2-3H43v-1.36H48.4A4.31,4.31,0,0,0,47.28,241a3.82,3.82,0,0,0-2.8-.94,7.4,7.4,0,0,0-1.8.23A6.16,6.16,0,0,0,41,241v-1.44a6,6,0,0,1,1.42-.58,7.15,7.15,0,0,1,2-.25,6.64,6.64,0,0,1,2.4.4,4.75,4.75,0,0,1,1.76,1.16,5.14,5.14,0,0,1,1.08,1.85A7.85,7.85,0,0,1,50.06,244.61Z"/><path class="cls-3" d="M52.29,247.76a10.9,10.9,0,0,0,.29-2.21c0-.93.06-2.1.06-3.52h5.58v8.31H56.8v-7.11H54c0,1.14,0,2.16-.11,3a9.8,9.8,0,0,1-.36,2.24,3,3,0,0,1-.82,1.39,2.11,2.11,0,0,1-1.43.47h-.13l-.14,0V249l.2,0C51.73,249,52.1,248.57,52.29,247.76Z"/><path class="cls-3" d="M67.12,249.64l-.43.27a4.85,4.85,0,0,1-.63.28,5.23,5.23,0,0,1-.83.22,5.44,5.44,0,0,1-1,.09A4.18,4.18,0,0,1,61,249.36a4.4,4.4,0,0,1-1.09-3.18,5.09,5.09,0,0,1,.3-1.81A3.74,3.74,0,0,1,61,243a3.6,3.6,0,0,1,1.25-.85,4,4,0,0,1,1.57-.3,3.9,3.9,0,0,1,1.6.31,3,3,0,0,1,1.16.89,3.5,3.5,0,0,1,.62,1.47,6,6,0,0,1,0,2H61.37a2.9,2.9,0,0,0,.81,2,3,3,0,0,0,2.14.67A4.53,4.53,0,0,0,66,249a6.42,6.42,0,0,0,1.15-.6Zm-3.3-6.52a2.33,2.33,0,0,0-1.56.56,2.68,2.68,0,0,0-.84,1.7h4.47a2.1,2.1,0,0,0-.53-1.71A2.17,2.17,0,0,0,63.82,243.12Z"/><path class="cls-3" d="M77,243.67l-2.82,5.74H73.1l-2.65-5.78v6.71H69.12V242h2.09l2.55,5.57L76.48,242h2v8.31H77Z"/><path class="cls-3" d="M87.34,249.64c-.11.08-.26.17-.43.27a5.33,5.33,0,0,1-.62.28,5.88,5.88,0,0,1-.83.22,5.52,5.52,0,0,1-1,.09,4.22,4.22,0,0,1-3.19-1.14,4.44,4.44,0,0,1-1.09-3.18,5.09,5.09,0,0,1,.3-1.81,3.88,3.88,0,0,1,.82-1.35,3.7,3.7,0,0,1,1.25-.85,4,4,0,0,1,1.57-.3,3.87,3.87,0,0,1,1.6.31,2.85,2.85,0,0,1,1.16.89,3.5,3.5,0,0,1,.62,1.47,5.93,5.93,0,0,1,0,2H81.6a2.85,2.85,0,0,0,.8,2,3,3,0,0,0,2.14.67,4.53,4.53,0,0,0,1.65-.27,6.42,6.42,0,0,0,1.15-.6Zm-3.29-6.52a2.36,2.36,0,0,0-1.57.56,2.62,2.62,0,0,0-.83,1.7h4.46a2.06,2.06,0,0,0-.53-1.71A2.13,2.13,0,0,0,84.05,243.12Z"/><path class="cls-3" d="M94.77,246.66h-4v3.68H89.34V242h1.41v3.43h4V242h1.41v8.31H94.77Z"/><path class="cls-3" d="M101.82,243.23v7.11h-1.4v-7.11H97.81V242h6.67v1.2Z"/><path class="cls-3" d="M112.25,247.57a2.88,2.88,0,0,1-.25,1.25,2.23,2.23,0,0,1-.72.86,3.14,3.14,0,0,1-1.11.5,6,6,0,0,1-1.39.16h-2.67V242h1.41v2.9h1.36a4.35,4.35,0,0,1,2.48.62A2.28,2.28,0,0,1,112.25,247.57Zm-4.73-1.44v3h1.26a2.82,2.82,0,0,0,1.48-.35,1.23,1.23,0,0,0,.57-1.14,1.32,1.32,0,0,0-.51-1.17,2.55,2.55,0,0,0-1.44-.35Zm7.34,4.21h-1.4V242h1.4Z"/><path class="cls-3" d="M126.11,246.66h-4v3.68h-1.4V242h1.4v3.43h4V242h1.41v8.31h-1.41Z"/><path class="cls-3" d="M136.43,249.64l-.43.27a4.85,4.85,0,0,1-.63.28,5.23,5.23,0,0,1-.83.22,5.44,5.44,0,0,1-1,.09,4.18,4.18,0,0,1-3.18-1.14,4.4,4.4,0,0,1-1.09-3.18,5.09,5.09,0,0,1,.3-1.81,3.74,3.74,0,0,1,.82-1.35,3.6,3.6,0,0,1,1.25-.85,4,4,0,0,1,1.57-.3,3.9,3.9,0,0,1,1.6.31,2.92,2.92,0,0,1,1.16.89,3.5,3.5,0,0,1,.62,1.47,6,6,0,0,1,0,2h-5.85a2.85,2.85,0,0,0,.8,2,3,3,0,0,0,2.14.67,4.53,4.53,0,0,0,1.65-.27,6.42,6.42,0,0,0,1.15-.6Zm-3.3-6.52a2.33,2.33,0,0,0-1.56.56,2.68,2.68,0,0,0-.84,1.7h4.47a2.1,2.1,0,0,0-.53-1.71A2.15,2.15,0,0,0,133.13,243.12Z"/><path class="cls-3" d="M141.9,251.56a4.29,4.29,0,0,1-.72,1,2.5,2.5,0,0,1-.89.6,3.09,3.09,0,0,1-1.14.2,3.65,3.65,0,0,1-.59,0,1.94,1.94,0,0,1-.5-.14v-1.34a1.56,1.56,0,0,0,.45.2,2.22,2.22,0,0,0,.59.07,1.6,1.6,0,0,0,1-.28,2.9,2.9,0,0,0,.73-.9L137.44,242H139l2.64,7,2.62-7h1.36l-3.1,8.21A10.28,10.28,0,0,1,141.9,251.56Z"/><path class="cls-3" d="M147,242h6.65v8.31h-1.41v-7.11h-3.84v7.11H147Z"/><path class="cls-3" d="M159.37,250.5a4.35,4.35,0,0,1-1.58-.29,3.44,3.44,0,0,1-1.27-.84,3.86,3.86,0,0,1-.84-1.35,5.62,5.62,0,0,1,0-3.68,3.86,3.86,0,0,1,.84-1.35,3.55,3.55,0,0,1,1.27-.83,4.5,4.5,0,0,1,3.18,0,3.68,3.68,0,0,1,1.28.83,4,4,0,0,1,.84,1.35,5.45,5.45,0,0,1,0,3.68,4,4,0,0,1-.84,1.35,3.56,3.56,0,0,1-1.28.84A4.38,4.38,0,0,1,159.37,250.5Zm0-1.25a2.71,2.71,0,0,0,1-.19,2.18,2.18,0,0,0,.82-.56,2.52,2.52,0,0,0,.54-.95,4.76,4.76,0,0,0,0-2.73,2.52,2.52,0,0,0-.54-.95,2.18,2.18,0,0,0-.82-.56,2.71,2.71,0,0,0-1-.19,2.61,2.61,0,0,0-1,.19,2.15,2.15,0,0,0-.81.56,2.5,2.5,0,0,0-.53.95,4.76,4.76,0,0,0,0,2.73,2.5,2.5,0,0,0,.53.95,2.15,2.15,0,0,0,.81.56A2.61,2.61,0,0,0,159.37,249.25Z"/><path class="cls-3" d="M169.29,250.5a3,3,0,0,1-1.65-.45,3.25,3.25,0,0,1-1.12-1.23v4.35h-1.4V242h1.23l.14,1.62a3.39,3.39,0,0,1,1.12-1.3,3,3,0,0,1,1.75-.48,3.61,3.61,0,0,1,1.38.27,3.18,3.18,0,0,1,1.17.8,3.76,3.76,0,0,1,.8,1.34,6.3,6.3,0,0,1,0,3.81,3.66,3.66,0,0,1-.82,1.34,3.13,3.13,0,0,1-1.18.8A3.76,3.76,0,0,1,169.29,250.5Zm-.21-1.25a2.27,2.27,0,0,0,1.79-.76,4.21,4.21,0,0,0,0-4.59,2.25,2.25,0,0,0-1.79-.78,2.79,2.79,0,0,0-1,.19,2.25,2.25,0,0,0-.82.57,2.62,2.62,0,0,0-.54,1,4.62,4.62,0,0,0,0,2.69,2.75,2.75,0,0,0,.54,1,2.11,2.11,0,0,0,.82.56A2.59,2.59,0,0,0,169.08,249.25Z"/><path class="cls-3" d="M174.56,244.72a2.67,2.67,0,0,1,.25-1.21,2.3,2.3,0,0,1,.72-.83,3.31,3.31,0,0,1,1.11-.49A6,6,0,0,1,178,242h2.67v8.31h-1.41v-3h-1.52l-2.13,3H174l2.4-3.36a2.82,2.82,0,0,1-1.33-.79A2.1,2.1,0,0,1,174.56,244.72Zm4.73,1.41v-2.9H178a2.81,2.81,0,0,0-1.47.34,1.16,1.16,0,0,0-.58,1.09,1.27,1.27,0,0,0,.51,1.13,2.69,2.69,0,0,0,1.46.34Z"/><path class="cls-3" d="M182.81,244.82h3.84v1.28h-3.84Z"/><path class="cls-3" d="M40.7,269.14a1.83,1.83,0,0,0,.71-.85,6.18,6.18,0,0,0,.4-1.46,20.44,20.44,0,0,0,.2-2.08c0-.8.07-1.7.1-2.72h5.71v7.11h1.25v3.57H47.84l-.18-2.37H41.49l-.15,2.37H40.08v-3.57Zm5.72,0v-5.91h-3a36.22,36.22,0,0,1-.3,3.77,4.85,4.85,0,0,1-.74,2.14Z"/><path class="cls-3" d="M53.79,270.5a4.35,4.35,0,0,1-1.58-.29,3.44,3.44,0,0,1-1.27-.84A3.86,3.86,0,0,1,50.1,268a5.62,5.62,0,0,1,0-3.68,3.86,3.86,0,0,1,.84-1.35,3.55,3.55,0,0,1,1.27-.83,4.5,4.5,0,0,1,3.18,0,3.55,3.55,0,0,1,1.27.83,4,4,0,0,1,.85,1.35,5.62,5.62,0,0,1,0,3.68,4,4,0,0,1-.85,1.35,3.44,3.44,0,0,1-1.27.84A4.38,4.38,0,0,1,53.79,270.5Zm0-1.25a2.63,2.63,0,0,0,1-.19,2.22,2.22,0,0,0,.83-.56,2.66,2.66,0,0,0,.54-.95,5,5,0,0,0,0-2.73,2.66,2.66,0,0,0-.54-.95,2.22,2.22,0,0,0-.83-.56,2.86,2.86,0,0,0-2,0,2.15,2.15,0,0,0-.81.56,2.66,2.66,0,0,0-.54.95,5,5,0,0,0,0,2.73,2.66,2.66,0,0,0,.54.95,2.15,2.15,0,0,0,.81.56A2.61,2.61,0,0,0,53.79,269.25Z"/><path class="cls-3" d="M65.73,270.34H64.32v-3.65a3.27,3.27,0,0,1-1,.52,4.28,4.28,0,0,1-1.29.18,3,3,0,0,1-2.15-.69,2.94,2.94,0,0,1-.75-2.24V262h1.43v2.45a1.72,1.72,0,0,0,.45,1.36,1.84,1.84,0,0,0,1.26.38,3.64,3.64,0,0,0,1.09-.16,2.91,2.91,0,0,0,1-.49V262h1.41Z"/><path class="cls-3" d="M74.64,269.64l-.43.27a4.85,4.85,0,0,1-.63.28,5.23,5.23,0,0,1-.83.22,5.52,5.52,0,0,1-1,.09,4.18,4.18,0,0,1-3.18-1.14,4.4,4.4,0,0,1-1.09-3.18,5.09,5.09,0,0,1,.3-1.81,3.74,3.74,0,0,1,.82-1.35,3.6,3.6,0,0,1,1.25-.85,4,4,0,0,1,1.56-.3,3.84,3.84,0,0,1,1.6.31,2.85,2.85,0,0,1,1.16.89,3.39,3.39,0,0,1,.63,1.47,6,6,0,0,1,0,2H68.89a2.85,2.85,0,0,0,.81,2,3,3,0,0,0,2.14.67,4.53,4.53,0,0,0,1.65-.27,6.42,6.42,0,0,0,1.15-.6Zm-3.3-6.52a2.33,2.33,0,0,0-1.56.56,2.68,2.68,0,0,0-.84,1.7h4.47a2.1,2.1,0,0,0-.53-1.71A2.17,2.17,0,0,0,71.34,263.12Z"/><path class="cls-3" d="M82.06,266.66h-4v3.68H76.64V262h1.41v3.43h4V262h1.41v8.31H82.06Z"/><path class="cls-3" d="M91.92,267.57a2.88,2.88,0,0,1-.26,1.25,2.23,2.23,0,0,1-.72.86,3.09,3.09,0,0,1-1.1.5,6.09,6.09,0,0,1-1.39.16H85.78V262h1.4v2.9h1.36a4.31,4.31,0,0,1,2.48.62A2.29,2.29,0,0,1,91.92,267.57Zm-4.74-1.44v3h1.27a2.84,2.84,0,0,0,1.48-.35,1.23,1.23,0,0,0,.57-1.14,1.33,1.33,0,0,0-.52-1.17,2.55,2.55,0,0,0-1.44-.35Zm7.35,4.21H93.12V262h1.41Z"/><path class="cls-3" d="M101.76,268.42l4.43-6.39h1.42v8.31h-1.4V264l-4.42,6.37h-1.44V262h1.41Z"/><path class="cls-3" d="M118.86,266.66h-4v3.68h-1.4V262h1.4v3.43h4V262h1.41v8.31h-1.41Z"/><path class="cls-3" d="M129.18,269.64l-.43.27a5.33,5.33,0,0,1-.62.28,5.68,5.68,0,0,1-.84.22,5.44,5.44,0,0,1-1,.09,4.19,4.19,0,0,1-3.18-1.14,4.4,4.4,0,0,1-1.09-3.18,5.09,5.09,0,0,1,.3-1.81,3.88,3.88,0,0,1,.82-1.35,3.6,3.6,0,0,1,1.25-.85,4,4,0,0,1,1.57-.3,3.9,3.9,0,0,1,1.6.31,2.92,2.92,0,0,1,1.16.89,3.5,3.5,0,0,1,.62,1.47,6,6,0,0,1,0,2h-5.85a2.85,2.85,0,0,0,.8,2,3,3,0,0,0,2.14.67A4.53,4.53,0,0,0,128,269a6.42,6.42,0,0,0,1.15-.6Zm-3.29-6.52a2.34,2.34,0,0,0-1.57.56,2.62,2.62,0,0,0-.83,1.7H128a2.06,2.06,0,0,0-.53-1.71A2.14,2.14,0,0,0,125.89,263.12Z"/><path class="cls-3" d="M142.62,263.67l-2.82,5.74h-1.12L136,263.63v6.71H134.7V262h2.1l2.54,5.57,2.72-5.57H144v8.31h-1.39Z"/><path class="cls-3" d="M149.73,270.5a4.36,4.36,0,0,1-1.59-.29,3.53,3.53,0,0,1-1.27-.84A3.86,3.86,0,0,1,146,268a5.79,5.79,0,0,1,0-3.68,3.86,3.86,0,0,1,.84-1.35,3.63,3.63,0,0,1,1.27-.83,4.36,4.36,0,0,1,1.59-.29,4.46,4.46,0,0,1,1.6.29,3.63,3.63,0,0,1,1.27.83,4,4,0,0,1,.85,1.35,5.62,5.62,0,0,1,0,3.68,4,4,0,0,1-.85,1.35,3.53,3.53,0,0,1-1.27.84A4.46,4.46,0,0,1,149.73,270.5Zm0-1.25a2.7,2.7,0,0,0,1-.19,2.18,2.18,0,0,0,.82-.56,2.53,2.53,0,0,0,.55-.95,5,5,0,0,0,0-2.73,2.53,2.53,0,0,0-.55-.95,2.18,2.18,0,0,0-.82-.56,2.7,2.7,0,0,0-1-.19,2.63,2.63,0,0,0-1,.19,2.15,2.15,0,0,0-.81.56,2.64,2.64,0,0,0-.53.95,5,5,0,0,0,0,2.73,2.64,2.64,0,0,0,.53.95,2.15,2.15,0,0,0,.81.56A2.63,2.63,0,0,0,149.73,269.25Z"/><path class="cls-3" d="M155.47,262h5.28v1.2h-3.87v7.11h-1.41Z"/><path class="cls-3" d="M166.17,271.56a4.29,4.29,0,0,1-.72,1,2.5,2.5,0,0,1-.89.6,3.09,3.09,0,0,1-1.14.2,3.65,3.65,0,0,1-.59,0,1.94,1.94,0,0,1-.5-.14v-1.34a1.56,1.56,0,0,0,.45.2,2.22,2.22,0,0,0,.59.07,1.6,1.6,0,0,0,1-.28,2.9,2.9,0,0,0,.73-.9L161.71,262h1.55l2.64,7,2.62-7h1.36l-3.1,8.21A9.08,9.08,0,0,1,166.17,271.56Z"/><path class="cls-3" d="M174.7,263.23v7.11h-1.41v-7.11h-2.6V262h6.67v1.2Z"/><path class="cls-3" d="M41.15,282h6.66v8.31H46.4v-7.11H42.56v7.11H41.15Z"/><path class="cls-3" d="M53.52,290.5a4.31,4.31,0,0,1-1.58-.29,3.56,3.56,0,0,1-1.28-.84,4.18,4.18,0,0,1-.84-1.35,5.79,5.79,0,0,1,0-3.68,4.18,4.18,0,0,1,.84-1.35,3.68,3.68,0,0,1,1.28-.83,4.31,4.31,0,0,1,1.58-.29,4.38,4.38,0,0,1,1.6.29,3.63,3.63,0,0,1,1.27.83,4,4,0,0,1,.85,1.35,5.62,5.62,0,0,1,0,3.68,4,4,0,0,1-.85,1.35,3.53,3.53,0,0,1-1.27.84A4.38,4.38,0,0,1,53.52,290.5Zm0-1.25a2.66,2.66,0,0,0,1-.19,2.22,2.22,0,0,0,.83-.56,2.66,2.66,0,0,0,.54-.95,5,5,0,0,0,0-2.73,2.66,2.66,0,0,0-.54-.95,2.22,2.22,0,0,0-.83-.56,2.66,2.66,0,0,0-1-.19,2.61,2.61,0,0,0-1,.19,2.15,2.15,0,0,0-.81.56,2.66,2.66,0,0,0-.54.95,5,5,0,0,0,0,2.73,2.66,2.66,0,0,0,.54.95,2.15,2.15,0,0,0,.81.56A2.61,2.61,0,0,0,53.52,289.25Z"/><path class="cls-3" d="M59.26,282h3.11a4.12,4.12,0,0,1,2.27.52,1.84,1.84,0,0,1,.77,1.63,1.73,1.73,0,0,1-.38,1.17A2.05,2.05,0,0,1,64,286a1.83,1.83,0,0,1,1.77,2,2.21,2.21,0,0,1-.25,1.1,2.09,2.09,0,0,1-.71.74,3.09,3.09,0,0,1-1.08.42,7.24,7.24,0,0,1-1.37.13H59.26Zm1.41,1.2v2.26h1.57a2.57,2.57,0,0,0,1.29-.29.92.92,0,0,0,.49-.83.94.94,0,0,0-.44-.9,2.58,2.58,0,0,0-1.23-.24Zm0,3.38v2.53h1.65a5,5,0,0,0,.81-.06,1.81,1.81,0,0,0,.62-.2,1,1,0,0,0,.41-.38,1.2,1.2,0,0,0,.14-.59,1.06,1.06,0,0,0-.49-1,3.06,3.06,0,0,0-1.49-.29Z"/><path class="cls-3" d="M71,283.23v7.11H69.63v-7.11H67V282H73.7v1.2Z"/><path class="cls-3" d="M78.5,290.5a4.36,4.36,0,0,1-1.59-.29,3.53,3.53,0,0,1-1.27-.84A3.86,3.86,0,0,1,74.8,288a5.79,5.79,0,0,1,0-3.68,3.86,3.86,0,0,1,.84-1.35,3.63,3.63,0,0,1,1.27-.83,4.36,4.36,0,0,1,1.59-.29,4.46,4.46,0,0,1,1.6.29,3.63,3.63,0,0,1,1.27.83,4.2,4.2,0,0,1,.85,1.35,5.62,5.62,0,0,1,0,3.68,4.2,4.2,0,0,1-.85,1.35,3.53,3.53,0,0,1-1.27.84A4.46,4.46,0,0,1,78.5,290.5Zm0-1.25a2.7,2.7,0,0,0,1-.19,2.18,2.18,0,0,0,.82-.56,2.53,2.53,0,0,0,.55-.95,5,5,0,0,0,0-2.73,2.53,2.53,0,0,0-.55-.95,2.18,2.18,0,0,0-.82-.56,2.7,2.7,0,0,0-1-.19,2.63,2.63,0,0,0-1,.19,2.15,2.15,0,0,0-.81.56,2.64,2.64,0,0,0-.53.95,5,5,0,0,0,0,2.73,2.64,2.64,0,0,0,.53.95,2.15,2.15,0,0,0,.81.56A2.63,2.63,0,0,0,78.5,289.25Z"/><path class="cls-3" d="M88.41,290.5a3,3,0,0,1-1.65-.45,3.15,3.15,0,0,1-1.11-1.23v4.35H84.24V282h1.23l.14,1.62a3.39,3.39,0,0,1,1.12-1.3,3,3,0,0,1,1.75-.48,3.61,3.61,0,0,1,1.38.27,3.18,3.18,0,0,1,1.17.8,3.76,3.76,0,0,1,.8,1.34,6.1,6.1,0,0,1,0,3.81,3.78,3.78,0,0,1-.81,1.34,3.25,3.25,0,0,1-1.19.8A3.76,3.76,0,0,1,88.41,290.5Zm-.2-1.25a2.26,2.26,0,0,0,1.78-.76,4.21,4.21,0,0,0,0-4.59,2.25,2.25,0,0,0-1.78-.78,2.8,2.8,0,0,0-1,.19,2.25,2.25,0,0,0-.82.57,2.62,2.62,0,0,0-.54,1,4.62,4.62,0,0,0,0,2.69,2.75,2.75,0,0,0,.54,1,2.11,2.11,0,0,0,.82.56A2.61,2.61,0,0,0,88.21,289.25Z"/><path class="cls-3" d="M93.68,284.72a2.67,2.67,0,0,1,.25-1.21,2.3,2.3,0,0,1,.72-.83,3.31,3.31,0,0,1,1.11-.49,6,6,0,0,1,1.39-.16h2.67v8.31H98.41v-3H96.89l-2.12,3H93.09l2.4-3.36a2.8,2.8,0,0,1-1.34-.79A2.14,2.14,0,0,1,93.68,284.72Zm4.73,1.41v-2.9H97.15a2.81,2.81,0,0,0-1.47.34,1.16,1.16,0,0,0-.58,1.09,1.27,1.27,0,0,0,.51,1.13,2.72,2.72,0,0,0,1.46.34Z"/><path class="cls-3" d="M105.47,283.23v7.11h-1.41v-7.11h-2.6V282h6.67v1.2Z"/><path class="cls-3" d="M115.93,287.57a2.88,2.88,0,0,1-.25,1.25,2.23,2.23,0,0,1-.72.86,3.14,3.14,0,0,1-1.11.5,6,6,0,0,1-1.39.16h-2.75V282h1.41v2.9h1.44a4.35,4.35,0,0,1,2.48.62A2.28,2.28,0,0,1,115.93,287.57Zm-4.81-1.44v3h1.34a2.82,2.82,0,0,0,1.48-.35,1.23,1.23,0,0,0,.57-1.14,1.32,1.32,0,0,0-.51-1.17,2.55,2.55,0,0,0-1.44-.35Z"/><path class="cls-3" d="M121.31,290.5a4.81,4.81,0,0,1-1.74-.3,3.8,3.8,0,0,1-1.32-.85,3.62,3.62,0,0,1-.83-1.35,5.39,5.39,0,0,1-.29-1.82,5.09,5.09,0,0,1,.3-1.81,3.77,3.77,0,0,1,.84-1.35,3.66,3.66,0,0,1,1.33-.85,4.9,4.9,0,0,1,1.77-.3,5.56,5.56,0,0,1,1.41.17,3,3,0,0,1,1.06.49v1.26a3.86,3.86,0,0,0-1.15-.5,5.09,5.09,0,0,0-1.3-.17,2.74,2.74,0,0,0-2.14.76,3.36,3.36,0,0,0-.68,2.3,3.47,3.47,0,0,0,.66,2.32,2.63,2.63,0,0,0,2.08.75,4.65,4.65,0,0,0,1.38-.19,5.22,5.22,0,0,0,1.15-.47v1.26a4.94,4.94,0,0,1-1.08.46A5.31,5.31,0,0,1,121.31,290.5Z"/><path class="cls-3" d="M125.73,284.72a2.67,2.67,0,0,1,.25-1.21,2.3,2.3,0,0,1,.72-.83,3.31,3.31,0,0,1,1.11-.49,6,6,0,0,1,1.39-.16h2.67v8.31h-1.41v-3h-1.52l-2.13,3h-1.68l2.4-3.36a2.82,2.82,0,0,1-1.33-.79A2.1,2.1,0,0,1,125.73,284.72Zm4.73,1.41v-2.9H129.2a2.81,2.81,0,0,0-1.47.34,1.16,1.16,0,0,0-.58,1.09,1.27,1.27,0,0,0,.51,1.13,2.69,2.69,0,0,0,1.46.34Z"/><path class="cls-3" d="M134.94,290.43a1,1,0,0,1-1-1,1,1,0,0,1,.29-.73,1.1,1.1,0,0,1,1.49,0,1,1,0,0,1-.74,1.74Z"/><path class="cls-3" d="M420.06,244.61a7.07,7.07,0,0,1-.41,2.47,5.36,5.36,0,0,1-1.17,1.86,5.12,5.12,0,0,1-1.82,1.16,6.79,6.79,0,0,1-2.36.4,6.4,6.4,0,0,1-2.12-.31,4.45,4.45,0,0,1-1.35-.67v-1.44a5.21,5.21,0,0,0,1.63.82,6.23,6.23,0,0,0,1.73.24,4.37,4.37,0,0,0,3-1,4.25,4.25,0,0,0,1.2-3H413v-1.36h5.38a4.31,4.31,0,0,0-1.12-2.82,3.82,3.82,0,0,0-2.8-.94,7.4,7.4,0,0,0-1.8.23A6.16,6.16,0,0,0,411,241v-1.44a6,6,0,0,1,1.42-.58,7.15,7.15,0,0,1,2-.25,6.64,6.64,0,0,1,2.4.4,4.75,4.75,0,0,1,1.76,1.16,5.14,5.14,0,0,1,1.08,1.85A7.85,7.85,0,0,1,420.06,244.61Z"/><path class="cls-3" d="M422.29,247.76a10.9,10.9,0,0,0,.29-2.21c0-.93.06-2.1.06-3.52h5.58v8.31H426.8v-7.11H424c0,1.14-.05,2.16-.11,3a9.8,9.8,0,0,1-.36,2.24,3,3,0,0,1-.82,1.39,2.11,2.11,0,0,1-1.43.47h-.13l-.14,0V249l.2,0C421.73,249,422.1,248.57,422.29,247.76Z"/><path class="cls-3" d="M437.12,249.64l-.43.27a4.85,4.85,0,0,1-.63.28,5.23,5.23,0,0,1-.83.22,5.44,5.44,0,0,1-1,.09,4.18,4.18,0,0,1-3.18-1.14,4.4,4.4,0,0,1-1.09-3.18,5.09,5.09,0,0,1,.3-1.81A3.74,3.74,0,0,1,431,243a3.6,3.6,0,0,1,1.25-.85,4,4,0,0,1,1.57-.3,3.9,3.9,0,0,1,1.6.31,3,3,0,0,1,1.16.89,3.5,3.5,0,0,1,.62,1.47,6,6,0,0,1,0,2h-5.86a2.9,2.9,0,0,0,.81,2,3,3,0,0,0,2.14.67A4.53,4.53,0,0,0,436,249a6.42,6.42,0,0,0,1.15-.6Zm-3.3-6.52a2.33,2.33,0,0,0-1.56.56,2.68,2.68,0,0,0-.84,1.7h4.47a2.1,2.1,0,0,0-.53-1.71A2.17,2.17,0,0,0,433.82,243.12Z"/><path class="cls-3" d="M447,243.67l-2.82,5.74H443.1l-2.65-5.78v6.71h-1.33V242h2.09l2.55,5.57,2.72-5.57h1.95v8.31H447Z"/><path class="cls-3" d="M457.34,249.64c-.11.08-.26.17-.43.27a5.33,5.33,0,0,1-.62.28,5.88,5.88,0,0,1-.83.22,5.52,5.52,0,0,1-1,.09,4.22,4.22,0,0,1-3.19-1.14,4.44,4.44,0,0,1-1.09-3.18,5.09,5.09,0,0,1,.3-1.81,3.88,3.88,0,0,1,.82-1.35,3.7,3.7,0,0,1,1.25-.85,4,4,0,0,1,1.57-.3,3.87,3.87,0,0,1,1.6.31,2.85,2.85,0,0,1,1.16.89,3.5,3.5,0,0,1,.62,1.47,5.93,5.93,0,0,1,0,2H451.6a2.85,2.85,0,0,0,.8,2,3,3,0,0,0,2.14.67,4.53,4.53,0,0,0,1.65-.27,6.42,6.42,0,0,0,1.15-.6Zm-3.29-6.52a2.36,2.36,0,0,0-1.57.56,2.62,2.62,0,0,0-.83,1.7h4.46a2.06,2.06,0,0,0-.53-1.71A2.13,2.13,0,0,0,454.05,243.12Z"/><path class="cls-3" d="M464.77,246.66h-4v3.68h-1.41V242h1.41v3.43h4V242h1.41v8.31h-1.41Z"/><path class="cls-3" d="M471.82,243.23v7.11h-1.4v-7.11h-2.61V242h6.67v1.2Z"/><path class="cls-3" d="M482.25,247.57a2.88,2.88,0,0,1-.25,1.25,2.23,2.23,0,0,1-.72.86,3.14,3.14,0,0,1-1.11.5,6,6,0,0,1-1.39.16h-2.67V242h1.41v2.9h1.36a4.35,4.35,0,0,1,2.48.62A2.28,2.28,0,0,1,482.25,247.57Zm-4.73-1.44v3h1.26a2.82,2.82,0,0,0,1.48-.35,1.23,1.23,0,0,0,.57-1.14,1.32,1.32,0,0,0-.51-1.17,2.55,2.55,0,0,0-1.44-.35Zm7.34,4.21h-1.4V242h1.4Z"/><path class="cls-3" d="M490.17,244.88h13.12v1.2H490.17Z"/><path class="cls-3" d="M511.55,250.5a4.81,4.81,0,0,1-1.74-.3,3.8,3.8,0,0,1-1.32-.85,3.62,3.62,0,0,1-.83-1.35,5.39,5.39,0,0,1-.29-1.82,5.09,5.09,0,0,1,.3-1.81,3.77,3.77,0,0,1,.84-1.35,3.66,3.66,0,0,1,1.33-.85,4.9,4.9,0,0,1,1.77-.3A5.56,5.56,0,0,1,513,242a3,3,0,0,1,1.06.49v1.26a3.86,3.86,0,0,0-1.15-.5,5.09,5.09,0,0,0-1.3-.17,2.74,2.74,0,0,0-2.14.76,3.36,3.36,0,0,0-.68,2.3,3.47,3.47,0,0,0,.66,2.32,2.63,2.63,0,0,0,2.08.75,4.65,4.65,0,0,0,1.38-.19,5.22,5.22,0,0,0,1.15-.47v1.26a4.94,4.94,0,0,1-1.08.46A5.31,5.31,0,0,1,511.55,250.5Z"/><path class="cls-3" d="M517.37,248.42l4.44-6.39h1.42v8.31h-1.41V244l-4.41,6.37H516V242h1.4Z"/><path class="cls-3" d="M533.46,243.67l-2.82,5.74h-1.12l-2.66-5.78v6.71h-1.32V242h2.09l2.54,5.57,2.72-5.57h2v8.31h-1.39Z"/><path class="cls-3" d="M537.15,242h3.1a4.16,4.16,0,0,1,2.28.52,1.83,1.83,0,0,1,.76,1.63,1.73,1.73,0,0,1-.37,1.17,2.09,2.09,0,0,1-1.06.64,1.83,1.83,0,0,1,1.77,2,2.11,2.11,0,0,1-.26,1.1,2.07,2.07,0,0,1-.7.74,3.09,3.09,0,0,1-1.08.42,7.33,7.33,0,0,1-1.37.13h-3.07Zm1.41,1.2v2.26h1.57a2.57,2.57,0,0,0,1.29-.29.91.91,0,0,0,.48-.83.93.93,0,0,0-.43-.9,2.58,2.58,0,0,0-1.23-.24Zm0,3.38v2.53h1.65a4.74,4.74,0,0,0,.8-.06,1.94,1.94,0,0,0,.63-.2,1,1,0,0,0,.41-.38,1.2,1.2,0,0,0,.14-.59,1.06,1.06,0,0,0-.49-1,3.09,3.09,0,0,0-1.49-.29Z"/><path class="cls-3" d="M549.15,250.5a4.31,4.31,0,0,1-1.58-.29,3.56,3.56,0,0,1-1.28-.84,4,4,0,0,1-.83-1.35,5.62,5.62,0,0,1,0-3.68,4,4,0,0,1,.83-1.35,3.68,3.68,0,0,1,1.28-.83,4.31,4.31,0,0,1,1.58-.29,4.38,4.38,0,0,1,1.6.29A3.55,3.55,0,0,1,552,243a4,4,0,0,1,.85,1.35,5.62,5.62,0,0,1,0,3.68,4,4,0,0,1-.85,1.35,3.44,3.44,0,0,1-1.27.84A4.38,4.38,0,0,1,549.15,250.5Zm0-1.25a2.66,2.66,0,0,0,1-.19,2.22,2.22,0,0,0,.83-.56,2.66,2.66,0,0,0,.54-.95,5,5,0,0,0,0-2.73,2.66,2.66,0,0,0-.54-.95,2.22,2.22,0,0,0-.83-.56,2.66,2.66,0,0,0-1-.19,2.61,2.61,0,0,0-1,.19,2.15,2.15,0,0,0-.81.56,2.66,2.66,0,0,0-.54.95,5,5,0,0,0,0,2.73,2.66,2.66,0,0,0,.54.95,2.15,2.15,0,0,0,.81.56A2.61,2.61,0,0,0,549.15,249.25Z"/><path class="cls-3" d="M555.29,247.76a10.23,10.23,0,0,0,.29-2.21c0-.93.07-2.1.07-3.52h5.58v8.31h-1.42v-7.11H557c0,1.14,0,2.16-.1,3a9.75,9.75,0,0,1-.37,2.24,3,3,0,0,1-.81,1.39,2.13,2.13,0,0,1-1.44.47h-.12l-.15,0V249l.21,0C554.73,249,555.1,248.57,555.29,247.76Z"/><path class="cls-3" d="M413.74,272.56a9.24,9.24,0,0,1-1.85-3.26,12.08,12.08,0,0,1-.61-3.88,13.6,13.6,0,0,1,.15-2,11.55,11.55,0,0,1,.47-2,10.17,10.17,0,0,1,.76-1.75,8,8,0,0,1,1.08-1.47h1.4a6.33,6.33,0,0,0-1.12,1.44,10.13,10.13,0,0,0-.78,1.74,11.2,11.2,0,0,0-.46,1.94,15.24,15.24,0,0,0-.14,2,12.41,12.41,0,0,0,.6,3.88,9.1,9.1,0,0,0,1.9,3.3Z"/><path class="cls-3" d="M420.4,270.5a4.81,4.81,0,0,1-1.74-.3,3.8,3.8,0,0,1-1.32-.85,3.62,3.62,0,0,1-.83-1.35,5.39,5.39,0,0,1-.29-1.82,5.09,5.09,0,0,1,.3-1.81,3.77,3.77,0,0,1,.84-1.35,3.66,3.66,0,0,1,1.33-.85,4.9,4.9,0,0,1,1.77-.3,5.56,5.56,0,0,1,1.41.17,3,3,0,0,1,1.06.49v1.26a3.86,3.86,0,0,0-1.15-.5,5.09,5.09,0,0,0-1.3-.17,2.74,2.74,0,0,0-2.14.76,3.36,3.36,0,0,0-.68,2.3,3.47,3.47,0,0,0,.66,2.32,2.63,2.63,0,0,0,2.08.75,4.65,4.65,0,0,0,1.38-.19,5.22,5.22,0,0,0,1.15-.47v1.26a4.94,4.94,0,0,1-1.08.46A5.31,5.31,0,0,1,420.4,270.5Z"/><path class="cls-3" d="M428.16,263.23v7.11h-1.41v-7.11h-2.61V262h6.68v1.2Z"/><path class="cls-3" d="M436.62,270.5a3,3,0,0,1-1.65-.45,3.15,3.15,0,0,1-1.11-1.23v4.35h-1.41V262h1.23l.14,1.62a3.39,3.39,0,0,1,1.12-1.3,3,3,0,0,1,1.75-.48,3.61,3.61,0,0,1,1.38.27,3.18,3.18,0,0,1,1.17.8,3.76,3.76,0,0,1,.8,1.34,6.1,6.1,0,0,1,0,3.81,3.78,3.78,0,0,1-.81,1.34,3.25,3.25,0,0,1-1.19.8A3.76,3.76,0,0,1,436.62,270.5Zm-.2-1.25a2.26,2.26,0,0,0,1.78-.76,4.21,4.21,0,0,0,0-4.59,2.25,2.25,0,0,0-1.78-.78,2.8,2.8,0,0,0-1,.19,2.25,2.25,0,0,0-.82.57,2.62,2.62,0,0,0-.54,1,4.62,4.62,0,0,0,0,2.69,2.75,2.75,0,0,0,.54,1,2.11,2.11,0,0,0,.82.56A2.61,2.61,0,0,0,436.42,269.25Z"/><path class="cls-3" d="M445.46,270.5a4.36,4.36,0,0,1-1.59-.29,3.53,3.53,0,0,1-1.27-.84,3.86,3.86,0,0,1-.84-1.35,5.79,5.79,0,0,1,0-3.68,3.86,3.86,0,0,1,.84-1.35,3.63,3.63,0,0,1,1.27-.83,4.36,4.36,0,0,1,1.59-.29,4.46,4.46,0,0,1,1.6.29,3.63,3.63,0,0,1,1.27.83,4.2,4.2,0,0,1,.85,1.35,5.62,5.62,0,0,1,0,3.68,4.2,4.2,0,0,1-.85,1.35,3.53,3.53,0,0,1-1.27.84A4.46,4.46,0,0,1,445.46,270.5Zm0-1.25a2.7,2.7,0,0,0,1-.19,2.18,2.18,0,0,0,.82-.56,2.53,2.53,0,0,0,.55-.95,5,5,0,0,0,0-2.73,2.53,2.53,0,0,0-.55-.95,2.18,2.18,0,0,0-.82-.56,2.7,2.7,0,0,0-1-.19,2.63,2.63,0,0,0-1,.19,2.15,2.15,0,0,0-.81.56,2.64,2.64,0,0,0-.53.95,5,5,0,0,0,0,2.73,2.64,2.64,0,0,0,.53.95,2.15,2.15,0,0,0,.81.56A2.63,2.63,0,0,0,445.46,269.25Z"/><path class="cls-3" d="M453.34,266.8h-.73v3.54H451.2V262h1.41v3.57h.8l2.91-3.57h1.6l-3.41,4.1,3.47,4.21h-1.71Z"/><path class="cls-3" d="M460.88,268.42l4.43-6.39h1.42v8.31h-1.4V264l-4.42,6.37h-1.44V262h1.41Z"/><path class="cls-3" d="M479.17,269.64l-.44.27a4.66,4.66,0,0,1-.62.28,5.23,5.23,0,0,1-.83.22,5.52,5.52,0,0,1-1,.09,4.22,4.22,0,0,1-3.19-1.14,4.44,4.44,0,0,1-1.08-3.18,5.09,5.09,0,0,1,.29-1.81,3.75,3.75,0,0,1,.83-1.35,3.56,3.56,0,0,1,1.24-.85,4.07,4.07,0,0,1,1.57-.3,3.87,3.87,0,0,1,1.6.31,2.85,2.85,0,0,1,1.16.89,3.51,3.51,0,0,1,.63,1.47,6,6,0,0,1,0,2h-5.86a2.89,2.89,0,0,0,.8,2,3,3,0,0,0,2.15.67A4.43,4.43,0,0,0,478,269a6.54,6.54,0,0,0,1.16-.6Zm-3.3-6.52a2.36,2.36,0,0,0-1.57.56,2.72,2.72,0,0,0-.83,1.7h4.46a2.06,2.06,0,0,0-.52-1.71A2.17,2.17,0,0,0,475.87,263.12Z"/><path class="cls-3" d="M480.72,269.14a1.82,1.82,0,0,0,.7-.85,5.74,5.74,0,0,0,.4-1.46,17.93,17.93,0,0,0,.2-2.08c0-.8.07-1.7.11-2.72h5.71v7.11h1.25v3.57h-1.24l-.17-2.37H481.5l-.14,2.37h-1.27v-3.57Zm5.71,0v-5.91h-3a31.4,31.4,0,0,1-.3,3.77,4.85,4.85,0,0,1-.74,2.14Z"/><path class="cls-3" d="M492,268.42,496.4,262h1.42v8.31h-1.41V264L492,270.34h-1.44V262H492Z"/><path class="cls-3" d="M505.55,266.66h-4v3.68h-1.41V262h1.41v3.43h4V262H507v8.31h-1.41Z"/><path class="cls-3" d="M510.67,268.42,515.1,262h1.42v8.31h-1.4V264l-4.42,6.37h-1.44V262h1.41Z"/><path class="cls-3" d="M525.26,270.34h-1.41v-3.65a3.27,3.27,0,0,1-1,.52,4.28,4.28,0,0,1-1.29.18,3.05,3.05,0,0,1-2.15-.69,3,3,0,0,1-.74-2.24V262h1.42v2.45a1.72,1.72,0,0,0,.45,1.36,1.86,1.86,0,0,0,1.26.38,3.6,3.6,0,0,0,1.09-.16,2.91,2.91,0,0,0,1-.49V262h1.41Z"/><path class="cls-3" d="M533,266.66h-4v3.68h-1.41V262H529v3.43h4V262h1.41v8.31H533Z"/><path class="cls-3" d="M540.11,270.5a4.36,4.36,0,0,1-1.59-.29,3.53,3.53,0,0,1-1.27-.84,3.86,3.86,0,0,1-.84-1.35,5.79,5.79,0,0,1,0-3.68,3.86,3.86,0,0,1,.84-1.35,3.63,3.63,0,0,1,1.27-.83,4.36,4.36,0,0,1,1.59-.29,4.42,4.42,0,0,1,1.6.29A3.63,3.63,0,0,1,543,263a4,4,0,0,1,.85,1.35,5.62,5.62,0,0,1,0,3.68,4,4,0,0,1-.85,1.35,3.53,3.53,0,0,1-1.27.84A4.42,4.42,0,0,1,540.11,270.5Zm0-1.25a2.66,2.66,0,0,0,1-.19,2.18,2.18,0,0,0,.82-.56,2.53,2.53,0,0,0,.55-.95,5,5,0,0,0,0-2.73,2.53,2.53,0,0,0-.55-.95,2.18,2.18,0,0,0-.82-.56,2.66,2.66,0,0,0-1-.19,2.63,2.63,0,0,0-1,.19,2,2,0,0,0-.8.56,2.66,2.66,0,0,0-.54.95,5,5,0,0,0,0,2.73,2.66,2.66,0,0,0,.54.95,2,2,0,0,0,.8.56A2.63,2.63,0,0,0,540.11,269.25Z"/><path class="cls-3" d="M547.26,268.42l4.43-6.39h1.43v8.31h-1.41V264l-4.42,6.37h-1.44V262h1.41Zm2.26-7.49a3.43,3.43,0,0,1-1.12-.17,2.3,2.3,0,0,1-.78-.46,1.86,1.86,0,0,1-.46-.69,2.2,2.2,0,0,1-.16-.86h1.41a1,1,0,0,0,1.11,1.16,1.14,1.14,0,0,0,.8-.28,1.16,1.16,0,0,0,.28-.88H552a2.13,2.13,0,0,1-.61,1.55A2.54,2.54,0,0,1,549.52,260.93Z"/><path class="cls-3" d="M410.7,289.14a1.83,1.83,0,0,0,.71-.85,6.18,6.18,0,0,0,.4-1.46,20.44,20.44,0,0,0,.2-2.08c0-.8.07-1.7.1-2.72h5.71v7.11h1.25v3.57h-1.23l-.18-2.37h-6.17l-.15,2.37h-1.26v-3.57Zm5.72,0v-5.91h-3a36.22,36.22,0,0,1-.3,3.77,4.85,4.85,0,0,1-.74,2.14Z"/><path class="cls-3" d="M421.18,287.76a10.23,10.23,0,0,0,.29-2.21c0-.93.07-2.1.07-3.52h5.58v8.31H425.7v-7.11h-2.84c0,1.14,0,2.16-.1,3a9.75,9.75,0,0,1-.37,2.24,3,3,0,0,1-.81,1.39,2.13,2.13,0,0,1-1.44.47H420l-.15,0V289l.21,0C420.62,289,421,288.57,421.18,287.76Z"/><path class="cls-3" d="M430.82,288.42l4.43-6.39h1.42v8.31h-1.41V284l-4.41,6.37h-1.44V282h1.41Z"/><path class="cls-3" d="M444.4,286.66h-4v3.68H439V282h1.4v3.43h4V282h1.41v8.31H444.4Z"/><path class="cls-3" d="M454.26,287.57a2.88,2.88,0,0,1-.26,1.25,2.23,2.23,0,0,1-.72.86,3.17,3.17,0,0,1-1.1.5,6.12,6.12,0,0,1-1.4.16h-2.67V282h1.41v2.9h1.36a4.33,4.33,0,0,1,2.48.62A2.29,2.29,0,0,1,454.26,287.57Zm-4.74-1.44v3h1.26a2.82,2.82,0,0,0,1.48-.35,1.23,1.23,0,0,0,.57-1.14,1.32,1.32,0,0,0-.51-1.17,2.55,2.55,0,0,0-1.44-.35Zm7.34,4.21h-1.4V282h1.4Z"/><path class="cls-3" d="M458.54,292.56a9.1,9.1,0,0,0,1.9-3.3,12.41,12.41,0,0,0,.6-3.88,15.24,15.24,0,0,0-.14-2,11.2,11.2,0,0,0-.46-1.94,10.13,10.13,0,0,0-.78-1.74,6.33,6.33,0,0,0-1.12-1.44h1.4a8,8,0,0,1,1.08,1.47,10.17,10.17,0,0,1,.76,1.75,11.55,11.55,0,0,1,.47,2,13.6,13.6,0,0,1,.15,2,12.08,12.08,0,0,1-.61,3.88,9.24,9.24,0,0,1-1.85,3.26Z"/><path class="cls-3" d="M465.6,290.43a1,1,0,0,1-1-1,1,1,0,0,1,.29-.73,1.1,1.1,0,0,1,1.49,0,1.08,1.08,0,0,1,0,1.45A1,1,0,0,1,465.6,290.43Z"/><path class="cls-3" d="M481.09,284.61a6.84,6.84,0,0,1-.42,2.47,5.36,5.36,0,0,1-1.17,1.86,5.07,5.07,0,0,1-1.81,1.16,6.83,6.83,0,0,1-2.36.4,6.36,6.36,0,0,1-2.12-.31,4.45,4.45,0,0,1-1.35-.67v-1.44a5.16,5.16,0,0,0,1.62.82,6.3,6.3,0,0,0,1.74.24,4.37,4.37,0,0,0,3-1,4.24,4.24,0,0,0,1.19-3h-5.39v-1.36h5.37A4.26,4.26,0,0,0,478.3,281a3.82,3.82,0,0,0-2.8-.94,7.53,7.53,0,0,0-1.8.23,6.16,6.16,0,0,0-1.64.68v-1.44a6.06,6.06,0,0,1,1.43-.58,7.05,7.05,0,0,1,2-.25,6.62,6.62,0,0,1,2.39.4,4.59,4.59,0,0,1,1.76,1.16,5.14,5.14,0,0,1,1.08,1.85A7.84,7.84,0,0,1,481.09,284.61Z"/><path class="cls-3" d="M483.31,287.76a10.23,10.23,0,0,0,.29-2.21c0-.93.06-2.1.06-3.52h5.59v8.31h-1.43v-7.11H485c0,1.14,0,2.16-.1,3a9.75,9.75,0,0,1-.37,2.24,3,3,0,0,1-.82,1.39,2.09,2.09,0,0,1-1.43.47h-.13l-.14,0V289l.21,0C482.75,289,483.12,288.57,483.31,287.76Z"/><path class="cls-3" d="M498.14,289.64c-.11.08-.26.17-.43.27a5.33,5.33,0,0,1-.62.28,5.68,5.68,0,0,1-.84.22,5.37,5.37,0,0,1-1,.09,4.21,4.21,0,0,1-3.18-1.14,4.44,4.44,0,0,1-1.09-3.18,5.09,5.09,0,0,1,.3-1.81,3.88,3.88,0,0,1,.82-1.35,3.7,3.7,0,0,1,1.25-.85,4,4,0,0,1,1.57-.3,3.87,3.87,0,0,1,1.6.31,2.92,2.92,0,0,1,1.16.89,3.5,3.5,0,0,1,.62,1.47,6,6,0,0,1,0,2H492.4a2.85,2.85,0,0,0,.8,2,3,3,0,0,0,2.14.67A4.53,4.53,0,0,0,497,289a6.42,6.42,0,0,0,1.15-.6Zm-3.29-6.52a2.36,2.36,0,0,0-1.57.56,2.62,2.62,0,0,0-.83,1.7h4.46a2.06,2.06,0,0,0-.53-1.71A2.13,2.13,0,0,0,494.85,283.12Z"/><path class="cls-3" d="M508.06,283.67l-2.81,5.74h-1.12l-2.66-5.78v6.71h-1.33V282h2.1l2.54,5.57L507.5,282h1.95v8.31h-1.39Z"/><path class="cls-3" d="M518.37,289.64l-.44.27a4.66,4.66,0,0,1-.62.28,5.23,5.23,0,0,1-.83.22,5.52,5.52,0,0,1-1,.09,4.22,4.22,0,0,1-3.19-1.14,4.44,4.44,0,0,1-1.08-3.18,5.09,5.09,0,0,1,.29-1.81,3.75,3.75,0,0,1,.83-1.35,3.56,3.56,0,0,1,1.24-.85,4.07,4.07,0,0,1,1.57-.3,3.87,3.87,0,0,1,1.6.31,2.85,2.85,0,0,1,1.16.89,3.51,3.51,0,0,1,.63,1.47,6,6,0,0,1,0,2h-5.86a2.89,2.89,0,0,0,.8,2,3,3,0,0,0,2.15.67,4.43,4.43,0,0,0,1.64-.27,6.54,6.54,0,0,0,1.16-.6Zm-3.3-6.52a2.36,2.36,0,0,0-1.57.56,2.72,2.72,0,0,0-.83,1.7h4.46a2.06,2.06,0,0,0-.52-1.71A2.17,2.17,0,0,0,515.07,283.12Z"/><path class="cls-3" d="M525.79,286.66h-4v3.68h-1.4V282h1.4v3.43h4V282h1.41v8.31h-1.41Z"/><path class="cls-3" d="M532.85,283.23v7.11h-1.41v-7.11h-2.61V282h6.67v1.2Z"/><path class="cls-3" d="M543.28,287.57a2.88,2.88,0,0,1-.26,1.25,2.23,2.23,0,0,1-.72.86,3.17,3.17,0,0,1-1.1.5,6.09,6.09,0,0,1-1.39.16h-2.68V282h1.41v2.9h1.36a4.31,4.31,0,0,1,2.48.62A2.29,2.29,0,0,1,543.28,287.57Zm-4.74-1.44v3h1.27a2.84,2.84,0,0,0,1.48-.35,1.22,1.22,0,0,0,.56-1.14,1.32,1.32,0,0,0-.51-1.17,2.55,2.55,0,0,0-1.44-.35Zm7.35,4.21h-1.41V282h1.41Z"/><path class="cls-3" d="M416.58,306.66h-4v3.68h-1.41V302h1.41v3.43h4V302H418v8.31h-1.4Z"/><path class="cls-3" d="M426.9,309.64l-.44.27a5.33,5.33,0,0,1-.62.28,5.51,5.51,0,0,1-1.87.31,4.22,4.22,0,0,1-3.19-1.14,4.44,4.44,0,0,1-1.08-3.18,5.09,5.09,0,0,1,.29-1.81,3.75,3.75,0,0,1,.83-1.35,3.56,3.56,0,0,1,1.24-.85,4.07,4.07,0,0,1,1.57-.3,3.87,3.87,0,0,1,1.6.31,2.85,2.85,0,0,1,1.16.89,3.51,3.51,0,0,1,.63,1.47,6.22,6.22,0,0,1,0,2h-5.86a2.89,2.89,0,0,0,.8,2,3,3,0,0,0,2.15.67,4.43,4.43,0,0,0,1.64-.27,6.54,6.54,0,0,0,1.16-.6Zm-3.3-6.52a2.36,2.36,0,0,0-1.57.56,2.67,2.67,0,0,0-.83,1.7h4.46a2.06,2.06,0,0,0-.52-1.71A2.17,2.17,0,0,0,423.6,303.12Z"/><path class="cls-3" d="M429.54,307.76a10.33,10.33,0,0,0,.28-2.21c.05-.93.07-2.1.07-3.52h5.58v8.31h-1.42v-7.11h-2.83c0,1.14-.05,2.16-.11,3a9.75,9.75,0,0,1-.37,2.24,2.9,2.9,0,0,1-.81,1.39,2.12,2.12,0,0,1-1.43.47h-.13l-.15,0V309l.21,0C429,309,429.34,308.57,429.54,307.76Z"/><path class="cls-3" d="M443.94,307.57a2.88,2.88,0,0,1-.26,1.25,2.23,2.23,0,0,1-.72.86,3.17,3.17,0,0,1-1.1.5,6.18,6.18,0,0,1-1.4.16h-2.75V302h1.41v2.9h1.44a4.33,4.33,0,0,1,2.48.62A2.29,2.29,0,0,1,443.94,307.57Zm-4.82-1.44v3h1.34a2.82,2.82,0,0,0,1.48-.35,1.23,1.23,0,0,0,.57-1.14,1.32,1.32,0,0,0-.51-1.17,2.55,2.55,0,0,0-1.44-.35Z"/><path class="cls-3" d="M451.62,307.92a2.33,2.33,0,0,1-.29,1.19,2.21,2.21,0,0,1-.75.8,3.38,3.38,0,0,1-1.12.45,6.28,6.28,0,0,1-1.32.14,6.38,6.38,0,0,1-1.6-.19,3.81,3.81,0,0,1-1.1-.47v-1.26a4.11,4.11,0,0,0,1.18.49,5.91,5.91,0,0,0,1.49.18,3.48,3.48,0,0,0,1.53-.3,1.2,1.2,0,0,0,.1-2,3.31,3.31,0,0,0-1.6-.3H447V305.5h1.15a2.32,2.32,0,0,0,1.35-.32,1.06,1.06,0,0,0,.46-.92.93.93,0,0,0-.15-.54,1.18,1.18,0,0,0-.41-.35,1.76,1.76,0,0,0-.6-.19,4.23,4.23,0,0,0-.73-.06,5,5,0,0,0-1.37.18,4.18,4.18,0,0,0-1.14.49v-1.26a4.21,4.21,0,0,1,1.08-.47,5.9,5.9,0,0,1,1.54-.19,3.79,3.79,0,0,1,2.3.58,1.92,1.92,0,0,1,.77,1.66,1.8,1.8,0,0,1-.43,1.28,2.41,2.41,0,0,1-1.24.64,2.47,2.47,0,0,1,1.49.62A1.69,1.69,0,0,1,451.62,307.92Z"/><path class="cls-3" d="M453.44,304.72a2.54,2.54,0,0,1,.26-1.21,2.3,2.3,0,0,1,.72-.83,3.17,3.17,0,0,1,1.1-.49,6.09,6.09,0,0,1,1.39-.16h2.67v8.31h-1.41v-3h-1.51l-2.13,3h-1.68l2.4-3.36a2.85,2.85,0,0,1-1.34-.79A2.14,2.14,0,0,1,453.44,304.72Zm4.73,1.41v-2.9h-1.26a2.81,2.81,0,0,0-1.47.34,1.16,1.16,0,0,0-.58,1.09,1.27,1.27,0,0,0,.51,1.13,2.72,2.72,0,0,0,1.46.34Z"/><path class="cls-3" d="M466.81,308.42l4.44-6.39h1.42v8.31h-1.41V304l-4.41,6.37h-1.44V302h1.4Z"/><path class="cls-3" d="M480.86,307.92a2.33,2.33,0,0,1-.28,1.19,2.24,2.24,0,0,1-.76.8,3.24,3.24,0,0,1-1.11.45,6.28,6.28,0,0,1-1.32.14,6.47,6.47,0,0,1-1.61-.19,3.74,3.74,0,0,1-1.09-.47v-1.26a4.11,4.11,0,0,0,1.18.49,5.91,5.91,0,0,0,1.49.18,3.48,3.48,0,0,0,1.53-.3,1.2,1.2,0,0,0,.09-2,3.27,3.27,0,0,0-1.59-.3h-1.1V305.5h1.15a2.31,2.31,0,0,0,1.34-.32,1,1,0,0,0,.47-.92.87.87,0,0,0-.16-.54,1.14,1.14,0,0,0-.4-.35,1.76,1.76,0,0,0-.6-.19,4.32,4.32,0,0,0-.73-.06,5,5,0,0,0-1.37.18,4.18,4.18,0,0,0-1.14.49v-1.26a3.92,3.92,0,0,1,1.08-.47,5.84,5.84,0,0,1,1.54-.19,3.81,3.81,0,0,1,2.3.58,1.94,1.94,0,0,1,.77,1.66,1.76,1.76,0,0,1-.44,1.28,2.33,2.33,0,0,1-1.24.64,2.53,2.53,0,0,1,1.5.62A1.72,1.72,0,0,1,480.86,307.92Z"/><path class="cls-3" d="M490.85,303.67,488,309.41h-1.12l-2.66-5.78v6.71h-1.32V302H485l2.55,5.57,2.72-5.57h1.95v8.31h-1.39Z"/><path class="cls-3" d="M501.15,309.64l-.43.27a4.85,4.85,0,0,1-.63.28,5.23,5.23,0,0,1-.83.22,5.44,5.44,0,0,1-1,.09,4.19,4.19,0,0,1-3.18-1.14,4.4,4.4,0,0,1-1.09-3.18,5.09,5.09,0,0,1,.3-1.81,3.74,3.74,0,0,1,.82-1.35,3.6,3.6,0,0,1,1.25-.85,4,4,0,0,1,1.57-.3,3.9,3.9,0,0,1,1.6.31,2.92,2.92,0,0,1,1.16.89,3.5,3.5,0,0,1,.62,1.47,6,6,0,0,1,0,2h-5.85a2.85,2.85,0,0,0,.8,2,3,3,0,0,0,2.14.67A4.53,4.53,0,0,0,500,309a6.42,6.42,0,0,0,1.15-.6Zm-3.3-6.52a2.33,2.33,0,0,0-1.56.56,2.62,2.62,0,0,0-.83,1.7h4.46a2.06,2.06,0,0,0-.53-1.71A2.15,2.15,0,0,0,497.85,303.12Z"/><path class="cls-3" d="M508.57,306.66h-4v3.68h-1.41V302h1.41v3.43h4V302H510v8.31h-1.41Z"/><path class="cls-3" d="M512.29,304.72a2.67,2.67,0,0,1,.25-1.21,2.3,2.3,0,0,1,.72-.83,3.31,3.31,0,0,1,1.11-.49,6,6,0,0,1,1.39-.16h2.67v8.31H517v-3H515.5l-2.13,3h-1.68l2.4-3.36a2.82,2.82,0,0,1-1.33-.79A2.1,2.1,0,0,1,512.29,304.72Zm4.73,1.41v-2.9h-1.26a2.81,2.81,0,0,0-1.47.34,1.16,1.16,0,0,0-.58,1.09,1.27,1.27,0,0,0,.51,1.13,2.69,2.69,0,0,0,1.46.34Z"/><path class="cls-3" d="M524.08,303.23v7.11h-1.41v-7.11h-2.61V302h6.67v1.2Z"/><path class="cls-3" d="M534.54,307.57a2.88,2.88,0,0,1-.25,1.25,2.32,2.32,0,0,1-.72.86,3.14,3.14,0,0,1-1.11.5,6,6,0,0,1-1.39.16h-2.75V302h1.41v2.9h1.44a4.35,4.35,0,0,1,2.48.62A2.31,2.31,0,0,1,534.54,307.57Zm-4.81-1.44v3h1.34a2.82,2.82,0,0,0,1.48-.35,1.23,1.23,0,0,0,.57-1.14,1.32,1.32,0,0,0-.51-1.17,2.6,2.6,0,0,0-1.44-.35Z"/><path class="cls-3" d="M537.1,310.43a1,1,0,0,1-1-1,1,1,0,0,1,.29-.73,1.1,1.1,0,0,1,1.49,0,1,1,0,0,1-.74,1.74Z"/><path class="cls-3" d="M235.64,65.86a9.51,9.51,0,0,1-3.3-.55,7,7,0,0,1-2.52-1.6,6.8,6.8,0,0,1-1.6-2.55,9.55,9.55,0,0,1-.56-3.4,10,10,0,0,1,.53-3.41,6.94,6.94,0,0,1,1.57-2.54,6.7,6.7,0,0,1,2.49-1.59,9.57,9.57,0,0,1,3.37-.55,10.27,10.27,0,0,1,2.78.32,7.24,7.24,0,0,1,1.84.73V53.1a6.79,6.79,0,0,0-2.06-.85,10.12,10.12,0,0,0-2.47-.29,5,5,0,0,0-4,1.44,6.36,6.36,0,0,0-1.29,4.36q0,5.81,5.37,5.81a8.63,8.63,0,0,0,2.36-.31,6.39,6.39,0,0,0,2-1v2.36a5.93,5.93,0,0,1-1.78.83A9.29,9.29,0,0,1,235.64,65.86Z"/><path class="cls-3" d="M242.9,54.22h9.7V65.64h-2.55V56.29h-4.6v9.35H242.9Z"/><path class="cls-3" d="M258,62.18l5.28-8h2.51V65.64h-2.53V57.72L258,65.64h-2.55V54.22H258Z"/><path class="cls-3" d="M273.92,65.86a7.22,7.22,0,0,1-2.49-.41,5.33,5.33,0,0,1-1.87-1.16,5.24,5.24,0,0,1-1.18-1.86,7.65,7.65,0,0,1,0-5,4.88,4.88,0,0,1,3.08-3A7.28,7.28,0,0,1,274,54a7.52,7.52,0,0,1,2.08.26,4.59,4.59,0,0,1,1.42.66V57a5.89,5.89,0,0,0-1.48-.69,6.56,6.56,0,0,0-1.86-.24q-3.54,0-3.54,3.82c0,2.54,1.15,3.82,3.47,3.82a6.44,6.44,0,0,0,1.93-.26,7.06,7.06,0,0,0,1.48-.65v2.1a6.17,6.17,0,0,1-1.43.65A7.08,7.08,0,0,1,273.92,65.86Z"/><path class="cls-3" d="M284.77,65.86a6.12,6.12,0,0,1-2.25-.4,5,5,0,0,1-1.79-1.15,5.4,5.4,0,0,1-1.19-1.86,7.66,7.66,0,0,1,0-5.06,5.4,5.4,0,0,1,1.19-1.86,4.73,4.73,0,0,1,1.79-1.14,6.66,6.66,0,0,1,4.49,0,4.85,4.85,0,0,1,1.8,1.14A5.3,5.3,0,0,1,290,57.39a7.49,7.49,0,0,1,0,5.06,5.3,5.3,0,0,1-1.21,1.86,5.14,5.14,0,0,1-1.8,1.15A6.1,6.1,0,0,1,284.77,65.86Zm0-2.11a2.89,2.89,0,0,0,2.19-.93,4.16,4.16,0,0,0,.86-2.89,4.18,4.18,0,0,0-.86-2.88,2.9,2.9,0,0,0-2.19-.94,2.85,2.85,0,0,0-2.17.94,4.13,4.13,0,0,0-.87,2.88,4.11,4.11,0,0,0,.87,2.89A2.84,2.84,0,0,0,284.77,63.75Z"/><path class="cls-3" d="M296.14,61h-1v4.64H292.6V54.22h2.55v4.71h1.08l3.63-4.71h2.68l-4.31,5.5,4.49,5.92h-3Z"/><path class="cls-3" d="M312.9,68.7a13,13,0,0,1-2.52-4.45,16.88,16.88,0,0,1-.82-5.37,18.69,18.69,0,0,1,.21-2.81,16.13,16.13,0,0,1,.63-2.66,12.51,12.51,0,0,1,1-2.39,11,11,0,0,1,1.46-2h2.58A9,9,0,0,0,314,51a13.42,13.42,0,0,0-1.08,2.37,15.3,15.3,0,0,0-.64,2.65,18.92,18.92,0,0,0-.21,2.82,16.8,16.8,0,0,0,.84,5.38,12.94,12.94,0,0,0,2.62,4.5Z"/><path class="cls-3" d="M320.23,49.86V65.64h-2.55V49.86Z"/><path class="cls-3" d="M324.39,52.77a1.58,1.58,0,0,1-1.16-.46,1.53,1.53,0,0,1-.45-1.1,1.52,1.52,0,0,1,.45-1.1,1.55,1.55,0,0,1,1.16-.47A1.57,1.57,0,0,1,326,51.21a1.55,1.55,0,0,1-1.58,1.56Zm1.27,1.45V65.64h-2.55V54.22Z"/><path class="cls-3" d="M332.29,65.86a8.22,8.22,0,0,1-1.56-.14,9.58,9.58,0,0,1-1.22-.34,6.85,6.85,0,0,1-.89-.42,6.21,6.21,0,0,1-.58-.4v-2a5.32,5.32,0,0,0,.6.43,7.05,7.05,0,0,0,.91.44,7.45,7.45,0,0,0,1.17.34,8.23,8.23,0,0,0,1.48.13,3.39,3.39,0,0,0,1.77-.36,1.21,1.21,0,0,0,.56-1.07,1.1,1.1,0,0,0-.22-.73,1.69,1.69,0,0,0-.6-.42,3.83,3.83,0,0,0-.86-.23l-1-.18a13.33,13.33,0,0,1-1.35-.34,4.39,4.39,0,0,1-1.21-.59A2.77,2.77,0,0,1,328,57.48a3,3,0,0,1,1.21-2.56A5.64,5.64,0,0,1,332.7,54a8,8,0,0,1,2.21.27,5,5,0,0,1,1.38.55v2a5.33,5.33,0,0,0-1.37-.62,7.3,7.3,0,0,0-2.11-.26,3.8,3.8,0,0,0-1.82.33,1.1,1.1,0,0,0-.57,1,.9.9,0,0,0,.2.63,1.55,1.55,0,0,0,.55.36,4.91,4.91,0,0,0,.8.2l.93.17c.46.08.92.19,1.4.32a4.22,4.22,0,0,1,1.3.57,3.11,3.11,0,0,1,.95,1,3.25,3.25,0,0,1,.38,1.65,3.49,3.49,0,0,1-.4,1.73,3,3,0,0,1-1.06,1.11,4.19,4.19,0,0,1-1.49.59A8,8,0,0,1,332.29,65.86Z"/><path class="cls-3" d="M344.17,65.7a5.66,5.66,0,0,1-1.37.16,4.34,4.34,0,0,1-1.55-.25,2.61,2.61,0,0,1-1-.7,2.45,2.45,0,0,1-.57-1,4.18,4.18,0,0,1-.18-1.24V56.29h-1.36V54.22h1.36v-2.4H342v2.4h3.28v2.07H342v6.09a1.39,1.39,0,0,0,.34,1,1.61,1.61,0,0,0,1.13.33,2.38,2.38,0,0,0,.93-.16,2.82,2.82,0,0,0,.73-.42v2.12A4.16,4.16,0,0,1,344.17,65.7Z"/><path class="cls-3" d="M346.87,68.7a12.94,12.94,0,0,0,2.62-4.5,16.8,16.8,0,0,0,.84-5.38,20.35,20.35,0,0,0-.21-2.82,16.27,16.27,0,0,0-.64-2.65A13.42,13.42,0,0,0,348.4,51a9,9,0,0,0-1.53-2h2.58a11,11,0,0,1,1.46,2,13.18,13.18,0,0,1,1,2.39,16.13,16.13,0,0,1,.63,2.66,18.69,18.69,0,0,1,.21,2.81,16.88,16.88,0,0,1-.83,5.37,13.14,13.14,0,0,1-2.51,4.45Z"/><path class="cls-3" d="M59.81,321.47,64.49,311h3.3v15.77H65.11V314.92l-4.25,9.43-1.47,0h-1l-4.15-9.62v12H51.87V311h3.56Z"/><path class="cls-3" d="M78.27,322H73.45v4.81H70.9V315.36h2.55v4.53h4.82v-4.53h2.55v11.41H78.27Z"/><path class="cls-3" d="M88.63,327a6.33,6.33,0,0,1-2.25-.39,5.12,5.12,0,0,1-1.79-1.16,5.22,5.22,0,0,1-1.19-1.86,7,7,0,0,1-.43-2.53,7.1,7.1,0,0,1,.43-2.53,5.4,5.4,0,0,1,1.19-1.86,5.07,5.07,0,0,1,1.79-1.14,6.82,6.82,0,0,1,4.49,0,5.25,5.25,0,0,1,1.81,1.14,5.6,5.6,0,0,1,1.21,1.86,6.88,6.88,0,0,1,.44,2.53,6.8,6.8,0,0,1-.44,2.53,5.4,5.4,0,0,1-1.21,1.86,5.3,5.3,0,0,1-1.81,1.16A6.31,6.31,0,0,1,88.63,327Zm0-2.11a2.9,2.9,0,0,0,2.19-.92,4.14,4.14,0,0,0,.87-2.9,4.09,4.09,0,0,0-.87-2.87,3,3,0,0,0-4.36,0,4.09,4.09,0,0,0-.87,2.87,4.14,4.14,0,0,0,.87,2.9A2.87,2.87,0,0,0,88.63,324.88Z"/><path class="cls-3" d="M104.36,315.36v4.7h.94l3.28-4.7h2.62l-3.89,5.47,4.11,5.94h-3l-3.19-4.64h-.88v4.64h-2.55v-4.64h-.88l-3.26,4.64h-2.9l4.11-5.83L95,315.36h2.71l3.21,4.7h.93v-4.7Z"/><path class="cls-3" d="M122.13,325.94l-.59.34a4.87,4.87,0,0,1-.84.34,8.12,8.12,0,0,1-1.12.26,7.92,7.92,0,0,1-1.45.11,6.38,6.38,0,0,1-4.7-1.56,6,6,0,0,1-1.55-4.38,6.9,6.9,0,0,1,.42-2.48,5.18,5.18,0,0,1,1.17-1.86,4.93,4.93,0,0,1,1.78-1.17,6.14,6.14,0,0,1,2.26-.4,6.2,6.2,0,0,1,2.3.41,4,4,0,0,1,1.69,1.26,4.85,4.85,0,0,1,.91,2.07,8.37,8.37,0,0,1,0,2.88h-7.9a3.42,3.42,0,0,0,1,2.34,4.05,4.05,0,0,0,2.75.78,6.46,6.46,0,0,0,2.27-.34,9.92,9.92,0,0,0,1.55-.71Zm-4.62-8.78a2.79,2.79,0,0,0-1.89.68,3.44,3.44,0,0,0-1,2H120a2.66,2.66,0,0,0-.62-2.05A2.49,2.49,0,0,0,117.51,317.16Z"/><path class="cls-3" d="M130.05,327a7.13,7.13,0,0,1-2.48-.4,5,5,0,0,1-1.87-1.17,5.13,5.13,0,0,1-1.19-1.86,7,7,0,0,1-.42-2.51,6.9,6.9,0,0,1,.42-2.48,5,5,0,0,1,1.19-1.86,5,5,0,0,1,1.89-1.17,7.34,7.34,0,0,1,2.51-.4,7.26,7.26,0,0,1,2.08.26,4.82,4.82,0,0,1,1.42.66v2.11a5.93,5.93,0,0,0-1.49-.68,6.46,6.46,0,0,0-1.86-.24q-3.54,0-3.54,3.81t3.48,3.82a6.39,6.39,0,0,0,1.92-.25,7.71,7.71,0,0,0,1.49-.65v2.1a6.37,6.37,0,0,1-1.43.64A7.19,7.19,0,0,1,130.05,327Z"/><path class="cls-3" d="M141.05,317.42v9.35H138.5v-9.35h-3.45v-2.06h9.52v2.06Z"/><path class="cls-3" d="M146.51,315.36h4.66q4.34,0,4.34,2.86a2.31,2.31,0,0,1-.59,1.66,3.66,3.66,0,0,1-1.7.91,3.67,3.67,0,0,1,2.07.86,2.49,2.49,0,0,1,.68,1.87,2.91,2.91,0,0,1-.35,1.45,2.87,2.87,0,0,1-1,1,4.84,4.84,0,0,1-1.53.6,9.37,9.37,0,0,1-2,.19h-4.62Zm2.53,2V320h1.87a2.9,2.9,0,0,0,1.5-.34,1.08,1.08,0,0,0,.57-1,1.14,1.14,0,0,0-.5-1.06,2.81,2.81,0,0,0-1.44-.3Zm0,4.49v3h2a4.08,4.08,0,0,0,1.7-.3,1.15,1.15,0,0,0,.65-1.14,1.27,1.27,0,0,0-.58-1.18,3.74,3.74,0,0,0-1.84-.35Z"/><path class="cls-3" d="M163.43,327a6.33,6.33,0,0,1-2.25-.39,5.12,5.12,0,0,1-1.79-1.16,5.22,5.22,0,0,1-1.19-1.86,7,7,0,0,1-.43-2.53,7.1,7.1,0,0,1,.43-2.53,5.4,5.4,0,0,1,1.19-1.86,5.07,5.07,0,0,1,1.79-1.14,6.82,6.82,0,0,1,4.49,0,5.12,5.12,0,0,1,1.8,1.14,5.3,5.3,0,0,1,1.21,1.86,6.68,6.68,0,0,1,.44,2.53,6.61,6.61,0,0,1-.44,2.53,5.21,5.21,0,0,1-3,3A6.31,6.31,0,0,1,163.43,327Zm0-2.11a2.9,2.9,0,0,0,2.19-.92,4.14,4.14,0,0,0,.87-2.9,4.09,4.09,0,0,0-.87-2.87,3,3,0,0,0-4.36,0,4.09,4.09,0,0,0-.87,2.87,4.14,4.14,0,0,0,.87,2.9A2.87,2.87,0,0,0,163.43,324.88Z"/><path class="cls-3" d="M91.08,351.83a13,13,0,0,1-2.52-4.44,17,17,0,0,1-.82-5.37A18.92,18.92,0,0,1,88,339.2a15.38,15.38,0,0,1,.62-2.66,13.52,13.52,0,0,1,1.05-2.39,10.56,10.56,0,0,1,1.46-2h2.57a9.69,9.69,0,0,0-1.53,2,12.51,12.51,0,0,0-1.07,2.38,14.87,14.87,0,0,0-.64,2.65A18.69,18.69,0,0,0,90.2,342a16.71,16.71,0,0,0,.84,5.38,12.74,12.74,0,0,0,2.61,4.5Z"/><path class="cls-3" d="M99.62,349a7.48,7.48,0,0,1-1.56-.14,9.58,9.58,0,0,1-1.22-.34,5.3,5.3,0,0,1-.89-.42,6.37,6.37,0,0,1-.58-.39v-2a4.29,4.29,0,0,0,.6.43,7.05,7.05,0,0,0,.91.44,6.52,6.52,0,0,0,1.17.34,7.48,7.48,0,0,0,1.48.13,3.39,3.39,0,0,0,1.77-.36,1.2,1.2,0,0,0,.56-1.07,1.07,1.07,0,0,0-.22-.72,1.51,1.51,0,0,0-.59-.42,3.93,3.93,0,0,0-.87-.23c-.33,0-.67-.12-1-.19a13.33,13.33,0,0,1-1.35-.34,4.37,4.37,0,0,1-1.21-.58,2.94,2.94,0,0,1-.88-1,3,3,0,0,1-.34-1.52,3,3,0,0,1,1.21-2.55,5.58,5.58,0,0,1,3.45-.92,8.15,8.15,0,0,1,2.22.26,5,5,0,0,1,1.37.56v2a5.41,5.41,0,0,0-1.36-.61,7.09,7.09,0,0,0-2.12-.26,3.82,3.82,0,0,0-1.82.32,1.1,1.1,0,0,0-.57,1,.88.88,0,0,0,.21.62,1.42,1.42,0,0,0,.54.36,4,4,0,0,0,.8.21l.93.16c.46.09.92.2,1.4.32a4.62,4.62,0,0,1,1.3.57,3,3,0,0,1,.95,1,3.2,3.2,0,0,1,.38,1.65,3.34,3.34,0,0,1-.4,1.72,3,3,0,0,1-1,1.11,4.54,4.54,0,0,1-1.5.6A8.73,8.73,0,0,1,99.62,349Z"/><path class="cls-3" d="M115.94,347.94l-.59.34a5.63,5.63,0,0,1-.84.34,8.48,8.48,0,0,1-1.12.26,8,8,0,0,1-1.45.11,6.36,6.36,0,0,1-4.7-1.56,6,6,0,0,1-1.55-4.38,6.9,6.9,0,0,1,.42-2.48,5,5,0,0,1,2.94-3,6.65,6.65,0,0,1,4.57,0,4.06,4.06,0,0,1,1.68,1.26,4.73,4.73,0,0,1,.91,2.07,8.35,8.35,0,0,1,0,2.88h-7.9a3.46,3.46,0,0,0,1,2.34,4.09,4.09,0,0,0,2.75.78,6.52,6.52,0,0,0,2.28-.34,10.37,10.37,0,0,0,1.55-.71Zm-4.62-8.78a2.76,2.76,0,0,0-1.89.68,3.38,3.38,0,0,0-1,2h5.36a2.66,2.66,0,0,0-.61-2.05A2.51,2.51,0,0,0,111.32,339.16Z"/><path class="cls-3" d="M123.64,348.83a5.13,5.13,0,0,1-1.36.16,4.18,4.18,0,0,1-1.56-.25,2.87,2.87,0,0,1-1-.69,2.81,2.81,0,0,1-.57-1,4.13,4.13,0,0,1-.18-1.24v-6.36h-1.36v-2.06H119V335h2.56v2.4h3.27v2.06h-3.27v6.09a1.39,1.39,0,0,0,.34,1,1.57,1.57,0,0,0,1.13.33,2.57,2.57,0,0,0,.92-.15,2.78,2.78,0,0,0,.73-.42v2.12A3.84,3.84,0,0,1,123.64,348.83Z"/><path class="cls-3" d="M126.35,351.83a12.74,12.74,0,0,0,2.61-4.5,16.71,16.71,0,0,0,.84-5.38,18.69,18.69,0,0,0-.21-2.81,14.87,14.87,0,0,0-.64-2.65,12,12,0,0,0-1.08-2.38,9.31,9.31,0,0,0-1.52-2h2.57a10.56,10.56,0,0,1,1.46,2,13.52,13.52,0,0,1,1.05,2.39,15.38,15.38,0,0,1,.62,2.66,18.92,18.92,0,0,1,.21,2.82,17,17,0,0,1-.82,5.37,13,13,0,0,1-2.52,4.44Z"/><path class="cls-3" d="M419.17,348.86a9.51,9.51,0,0,1-3.3-.55,6.84,6.84,0,0,1-4.13-4.15,9.78,9.78,0,0,1-.56-3.4,10,10,0,0,1,.54-3.41,7.05,7.05,0,0,1,1.56-2.54,6.74,6.74,0,0,1,2.5-1.59,9.49,9.49,0,0,1,3.37-.55,10.27,10.27,0,0,1,2.78.32,7.24,7.24,0,0,1,1.84.73v2.38a6.9,6.9,0,0,0-2.06-.85,10.2,10.2,0,0,0-2.48-.29,5,5,0,0,0-3.94,1.44,6.36,6.36,0,0,0-1.29,4.36q0,5.81,5.37,5.81a8.63,8.63,0,0,0,2.36-.31,6.39,6.39,0,0,0,2-1v2.36a5.88,5.88,0,0,1-1.79.83A9.18,9.18,0,0,1,419.17,348.86Z"/><path class="cls-3" d="M431.31,339.29v9.35h-2.55v-9.35h-3.45v-2.07h9.52v2.07Z"/><path class="cls-3" d="M443.06,348.86a4.18,4.18,0,0,1-2.23-.58,4.4,4.4,0,0,1-1.51-1.58v5.83h-2.55V337.22h2.33l.18,2a4.43,4.43,0,0,1,1.51-1.64,4.14,4.14,0,0,1,2.31-.61,5.21,5.21,0,0,1,1.93.36,4.37,4.37,0,0,1,1.59,1.1,5.43,5.43,0,0,1,1.09,1.85,7.61,7.61,0,0,1,.41,2.61,7.69,7.69,0,0,1-.41,2.63,5.29,5.29,0,0,1-1.1,1.85,4.53,4.53,0,0,1-1.61,1.1A5.34,5.34,0,0,1,443.06,348.86Zm-.62-2.11a2.88,2.88,0,0,0,2.22-.94,5.34,5.34,0,0,0,0-5.75,2.82,2.82,0,0,0-2.19-.95,3.4,3.4,0,0,0-1.26.23,2.81,2.81,0,0,0-1,.72,3.4,3.4,0,0,0-.67,1.2,6,6,0,0,0,0,3.36,3.41,3.41,0,0,0,.66,1.19,2.59,2.59,0,0,0,1,.7A3.22,3.22,0,0,0,442.44,346.75Z"/><path class="cls-3" d="M455.23,348.86a6.12,6.12,0,0,1-2.25-.4,5,5,0,0,1-1.79-1.15,5.4,5.4,0,0,1-1.19-1.86,7.66,7.66,0,0,1,0-5.06,5.4,5.4,0,0,1,1.19-1.86,4.73,4.73,0,0,1,1.79-1.14,6.66,6.66,0,0,1,4.49,0,4.85,4.85,0,0,1,1.8,1.14,5.3,5.3,0,0,1,1.21,1.86,7.49,7.49,0,0,1,0,5.06,5.3,5.3,0,0,1-1.21,1.86,5.14,5.14,0,0,1-1.8,1.15A6.1,6.1,0,0,1,455.23,348.86Zm0-2.11a2.89,2.89,0,0,0,2.19-.93,5.27,5.27,0,0,0,0-5.77,2.9,2.9,0,0,0-2.19-.94,2.85,2.85,0,0,0-2.17.94,5.22,5.22,0,0,0,0,5.77A2.84,2.84,0,0,0,455.23,346.75Z"/><path class="cls-3" d="M466.6,344h-1v4.64h-2.55V337.22h2.55v4.71h1.08l3.63-4.71H473l-4.31,5.5,4.49,5.92h-3Z"/><path class="cls-3" d="M481.23,346.64a4.11,4.11,0,0,1-.47.79,3.52,3.52,0,0,1-.73.71,3.38,3.38,0,0,1-1,.52,4.48,4.48,0,0,1-1.39.2,4.34,4.34,0,0,1-1.38-.21,3.16,3.16,0,0,1-1.12-.63,2.94,2.94,0,0,1-.74-1,3.46,3.46,0,0,1-.28-1.44,3.16,3.16,0,0,1,1.39-2.81,7,7,0,0,1,3.91-.93h1.74v-.71a1.83,1.83,0,0,0-.57-1.55,3.25,3.25,0,0,0-1.89-.43,6.79,6.79,0,0,0-2.1.32,9.27,9.27,0,0,0-1.73.74V338a9.22,9.22,0,0,1,1.8-.71,8.69,8.69,0,0,1,2.45-.33,5.59,5.59,0,0,1,3.4.91,3.46,3.46,0,0,1,1.19,2.92v6c0,.13,0,.28,0,.45s0,.34,0,.52,0,.34,0,.49,0,.29,0,.39h-2.35c0-.21-.08-.49-.12-.86s-.06-.7-.08-1Zm-2.9.24a2.46,2.46,0,0,0,1.35-.34,3.18,3.18,0,0,0,.87-.79,3,3,0,0,0,.46-.9,2.35,2.35,0,0,0,.13-.61v-.77h-1.58a4.1,4.1,0,0,0-2.22.47,1.52,1.52,0,0,0-.71,1.33,1.59,1.59,0,0,0,.43,1.18A1.71,1.71,0,0,0,478.33,346.88Z"/><path class="cls-3" d="M494.94,351.7a13,13,0,0,1-2.52-4.45,16.88,16.88,0,0,1-.83-5.37,18.69,18.69,0,0,1,.21-2.81,16.13,16.13,0,0,1,.63-2.66,13.18,13.18,0,0,1,1-2.39,10.6,10.6,0,0,1,1.47-2h2.57a9,9,0,0,0-1.53,2,13.42,13.42,0,0,0-1.08,2.37,16.27,16.27,0,0,0-.64,2.65,18.91,18.91,0,0,0-.2,2.82,16.8,16.8,0,0,0,.83,5.38,12.94,12.94,0,0,0,2.62,4.5Z"/><path class="cls-3" d="M503.47,348.86a8.11,8.11,0,0,1-1.55-.14,9.13,9.13,0,0,1-1.22-.34,6.85,6.85,0,0,1-.89-.42,5.11,5.11,0,0,1-.58-.4v-2a3.94,3.94,0,0,0,.6.43,7.57,7.57,0,0,0,.9.44,7.93,7.93,0,0,0,1.18.34,8.2,8.2,0,0,0,1.47.13,3.35,3.35,0,0,0,1.77-.36,1.19,1.19,0,0,0,.56-1.07,1.15,1.15,0,0,0-.21-.73,1.69,1.69,0,0,0-.6-.42,3.93,3.93,0,0,0-.87-.23l-1-.18a12.11,12.11,0,0,1-1.35-.34,4.39,4.39,0,0,1-1.21-.59,2.9,2.9,0,0,1-.88-1,3.4,3.4,0,0,1,.87-4.08,5.6,5.6,0,0,1,3.45-.92,8,8,0,0,1,2.21.27,5.28,5.28,0,0,1,1.38.55v2a5.49,5.49,0,0,0-1.37-.62A7.35,7.35,0,0,0,504,339a3.82,3.82,0,0,0-1.83.33,1.1,1.1,0,0,0-.57,1,.9.9,0,0,0,.21.63,1.46,1.46,0,0,0,.55.36,4.78,4.78,0,0,0,.79.2l.94.17c.45.08.92.19,1.39.32a4.12,4.12,0,0,1,1.3.57,3,3,0,0,1,1,1,3.25,3.25,0,0,1,.37,1.65,3.49,3.49,0,0,1-.39,1.73,3.22,3.22,0,0,1-1.06,1.11,4.35,4.35,0,0,1-1.49.59A8.11,8.11,0,0,1,503.47,348.86Z"/><path class="cls-3" d="M515.35,348.7a5.52,5.52,0,0,1-1.36.16,4.3,4.3,0,0,1-1.55-.25,2.73,2.73,0,0,1-1-.7,2.69,2.69,0,0,1-.57-1,4.18,4.18,0,0,1-.17-1.24v-6.36H509.3v-2.07h1.37v-2.4h2.55v2.4h3.28v2.07h-3.28v6.09a1.39,1.39,0,0,0,.34,1,1.59,1.59,0,0,0,1.13.33,2.45,2.45,0,0,0,.93-.16,2.61,2.61,0,0,0,.72-.42v2.12A3.83,3.83,0,0,1,515.35,348.7Z"/><path class="cls-3" d="M522.81,340.08a3.08,3.08,0,0,0-1.54,1.32v7.24h-2.55V337.22h2.33l.18,2.38h0a5,5,0,0,1,1.51-1.76,4.52,4.52,0,0,1,2.3-.84v2.68A5.67,5.67,0,0,0,522.81,340.08Z"/><path class="cls-3" d="M526.28,351.7a12.94,12.94,0,0,0,2.62-4.5,16.8,16.8,0,0,0,.84-5.38,18.92,18.92,0,0,0-.21-2.82,15.3,15.3,0,0,0-.64-2.65,12.12,12.12,0,0,0-1.08-2.37,9,9,0,0,0-1.53-2h2.58a10.56,10.56,0,0,1,1.46,2,13.2,13.2,0,0,1,1,2.39,17.2,17.2,0,0,1,.62,2.66,18.69,18.69,0,0,1,.21,2.81,16.88,16.88,0,0,1-.82,5.37,13,13,0,0,1-2.52,4.45Z"/><path class="cls-3" d="M50.06,134.61a7.07,7.07,0,0,1-.41,2.47,5.36,5.36,0,0,1-1.17,1.86,5.12,5.12,0,0,1-1.82,1.16,6.79,6.79,0,0,1-2.36.4,6.4,6.4,0,0,1-2.12-.31,4.45,4.45,0,0,1-1.35-.67v-1.44a5.21,5.21,0,0,0,1.63.82,6.23,6.23,0,0,0,1.73.24,4.37,4.37,0,0,0,3-1,4.25,4.25,0,0,0,1.2-3H43v-1.36H48.4A4.31,4.31,0,0,0,47.28,131a3.82,3.82,0,0,0-2.8-.94,7.4,7.4,0,0,0-1.8.23A6.16,6.16,0,0,0,41,131v-1.44a6,6,0,0,1,1.42-.58,7.15,7.15,0,0,1,2-.25,6.64,6.64,0,0,1,2.4.4,4.75,4.75,0,0,1,1.76,1.16,5.14,5.14,0,0,1,1.08,1.85A7.85,7.85,0,0,1,50.06,134.61Z"/><path class="cls-3" d="M52.29,137.76a10.9,10.9,0,0,0,.29-2.21c0-.93.06-2.1.06-3.52h5.58v8.31H56.8v-7.11H54c0,1.14,0,2.16-.11,3a9.8,9.8,0,0,1-.36,2.24,3,3,0,0,1-.82,1.39,2.11,2.11,0,0,1-1.43.47h-.13l-.14,0V139l.2,0C51.73,139,52.1,138.57,52.29,137.76Z"/><path class="cls-3" d="M67.12,139.64l-.43.27a4.85,4.85,0,0,1-.63.28,5.23,5.23,0,0,1-.83.22,5.44,5.44,0,0,1-1,.09A4.18,4.18,0,0,1,61,139.36a4.4,4.4,0,0,1-1.09-3.18,5.09,5.09,0,0,1,.3-1.81A3.74,3.74,0,0,1,61,133a3.6,3.6,0,0,1,1.25-.85,4,4,0,0,1,1.57-.3,3.9,3.9,0,0,1,1.6.31,3,3,0,0,1,1.16.89,3.5,3.5,0,0,1,.62,1.47,6,6,0,0,1,0,2H61.37a2.9,2.9,0,0,0,.81,2,3,3,0,0,0,2.14.67A4.53,4.53,0,0,0,66,139a6.42,6.42,0,0,0,1.15-.6Zm-3.3-6.52a2.33,2.33,0,0,0-1.56.56,2.68,2.68,0,0,0-.84,1.7h4.47a2.1,2.1,0,0,0-.53-1.71A2.17,2.17,0,0,0,63.82,133.12Z"/><path class="cls-3" d="M77,133.67l-2.82,5.74H73.1l-2.65-5.78v6.71H69.12V132h2.09l2.55,5.57L76.48,132h2v8.31H77Z"/><path class="cls-3" d="M87.34,139.64c-.11.08-.26.17-.43.27a5.33,5.33,0,0,1-.62.28,5.88,5.88,0,0,1-.83.22,5.52,5.52,0,0,1-1,.09,4.22,4.22,0,0,1-3.19-1.14,4.44,4.44,0,0,1-1.09-3.18,5.09,5.09,0,0,1,.3-1.81,3.88,3.88,0,0,1,.82-1.35,3.7,3.7,0,0,1,1.25-.85,4,4,0,0,1,1.57-.3,3.87,3.87,0,0,1,1.6.31,2.85,2.85,0,0,1,1.16.89,3.5,3.5,0,0,1,.62,1.47,5.93,5.93,0,0,1,0,2H81.6a2.85,2.85,0,0,0,.8,2,3,3,0,0,0,2.14.67,4.53,4.53,0,0,0,1.65-.27,6.42,6.42,0,0,0,1.15-.6Zm-3.29-6.52a2.36,2.36,0,0,0-1.57.56,2.62,2.62,0,0,0-.83,1.7h4.46a2.06,2.06,0,0,0-.53-1.71A2.13,2.13,0,0,0,84.05,133.12Z"/><path class="cls-3" d="M94.77,136.66h-4v3.68H89.34V132h1.41v3.43h4V132h1.41v8.31H94.77Z"/><path class="cls-3" d="M101.82,133.23v7.11h-1.4v-7.11H97.81V132h6.67v1.2Z"/><path class="cls-3" d="M112.25,137.57a2.88,2.88,0,0,1-.25,1.25,2.23,2.23,0,0,1-.72.86,3.14,3.14,0,0,1-1.11.5,6,6,0,0,1-1.39.16h-2.67V132h1.41v2.9h1.36a4.35,4.35,0,0,1,2.48.62A2.28,2.28,0,0,1,112.25,137.57Zm-4.73-1.44v3h1.26a2.82,2.82,0,0,0,1.48-.35,1.23,1.23,0,0,0,.57-1.14,1.32,1.32,0,0,0-.51-1.17,2.55,2.55,0,0,0-1.44-.35Zm7.34,4.21h-1.4V132h1.4Z"/><path class="cls-3" d="M128.61,133.67l-2.82,5.74h-1.12L122,133.63v6.71h-1.32V132h2.09l2.55,5.57,2.72-5.57H130v8.31h-1.39Z"/><path class="cls-3" d="M135.71,140.5a4.31,4.31,0,0,1-1.58-.29,3.56,3.56,0,0,1-1.28-.84A4.18,4.18,0,0,1,132,138a5.79,5.79,0,0,1,0-3.68,4.18,4.18,0,0,1,.84-1.35,3.68,3.68,0,0,1,1.28-.83,4.31,4.31,0,0,1,1.58-.29,4.38,4.38,0,0,1,1.6.29,3.63,3.63,0,0,1,1.27.83,4,4,0,0,1,.85,1.35,5.62,5.62,0,0,1,0,3.68,4,4,0,0,1-.85,1.35,3.53,3.53,0,0,1-1.27.84A4.38,4.38,0,0,1,135.71,140.5Zm0-1.25a2.66,2.66,0,0,0,1-.19,2.22,2.22,0,0,0,.83-.56,2.66,2.66,0,0,0,.54-.95,5,5,0,0,0,0-2.73,2.66,2.66,0,0,0-.54-.95,2.22,2.22,0,0,0-.83-.56,2.66,2.66,0,0,0-1-.19,2.61,2.61,0,0,0-1,.19,2.15,2.15,0,0,0-.81.56,2.66,2.66,0,0,0-.54.95,5,5,0,0,0,0,2.73,2.66,2.66,0,0,0,.54.95,2.15,2.15,0,0,0,.81.56A2.61,2.61,0,0,0,135.71,139.25Z"/><path class="cls-3" d="M141.46,132h5.27v1.2h-3.87v7.11h-1.4Z"/><path class="cls-3" d="M152.16,141.56a4.29,4.29,0,0,1-.72,1,2.63,2.63,0,0,1-.9.6,3.08,3.08,0,0,1-1.13.2,3.57,3.57,0,0,1-.59,0,1.83,1.83,0,0,1-.5-.14v-1.34a1.56,1.56,0,0,0,.45.2,2.22,2.22,0,0,0,.59.07,1.57,1.57,0,0,0,1-.28,2.78,2.78,0,0,0,.74-.9L147.7,132h1.55l2.64,7,2.62-7h1.36l-3.1,8.21A10.28,10.28,0,0,1,152.16,141.56Z"/><path class="cls-3" d="M160.69,133.23v7.11h-1.41v-7.11h-2.61V132h6.67v1.2Z"/><path class="cls-3" d="M176,136.18a5,5,0,0,1-.31,1.84,4,4,0,0,1-.85,1.35,3.53,3.53,0,0,1-1.27.84,4.38,4.38,0,0,1-1.6.29,4.28,4.28,0,0,1-1.62-.3,3.32,3.32,0,0,1-1.26-.9,4.26,4.26,0,0,1-.82-1.54,7.16,7.16,0,0,1-.3-2.19c0-.69,0-1.36.06-2a9.4,9.4,0,0,1,.29-1.75,5.17,5.17,0,0,1,.65-1.45,3.48,3.48,0,0,1,1.14-1.08,3.43,3.43,0,0,1,.84-.36,7.88,7.88,0,0,1,.87-.19,8.65,8.65,0,0,1,.89-.08l.88,0a5.65,5.65,0,0,0,1.07-.16,3.34,3.34,0,0,0,.77-.3v1.28a2.43,2.43,0,0,1-.75.31,8.3,8.3,0,0,1-.95.15L172,130a3.53,3.53,0,0,0-1.39.36,2.44,2.44,0,0,0-1.12,1.34,7.31,7.31,0,0,0-.41,2.1,3.1,3.1,0,0,1,3.13-1.92,3.74,3.74,0,0,1,1.47.28,3.25,3.25,0,0,1,1.18.83,3.73,3.73,0,0,1,.79,1.33A5.11,5.11,0,0,1,176,136.18Zm-4,3.07a2.66,2.66,0,0,0,1-.19,2.22,2.22,0,0,0,.83-.56,2.66,2.66,0,0,0,.54-.95,5,5,0,0,0,0-2.73,2.66,2.66,0,0,0-.54-.95,2.22,2.22,0,0,0-.83-.56,2.66,2.66,0,0,0-1-.19,2.46,2.46,0,0,0-1.83.74,3.11,3.11,0,0,0-.73,2.28,4.69,4.69,0,0,0,.19,1.38,2.71,2.71,0,0,0,.54,1,2.15,2.15,0,0,0,.81.56A2.61,2.61,0,0,0,172,139.25Z"/><path class="cls-3" d="M183.89,137.57a2.88,2.88,0,0,1-.26,1.25,2.23,2.23,0,0,1-.72.86,3.17,3.17,0,0,1-1.1.5,6.09,6.09,0,0,1-1.39.16h-2.68V132h1.41v2.9h1.36a4.33,4.33,0,0,1,2.48.62A2.29,2.29,0,0,1,183.89,137.57Zm-4.74-1.44v3h1.27a2.78,2.78,0,0,0,1.47-.35,1.23,1.23,0,0,0,.57-1.14,1.32,1.32,0,0,0-.51-1.17,2.55,2.55,0,0,0-1.44-.35Zm7.35,4.21h-1.41V132h1.41Z"/><path class="cls-3" d="M192.14,133.23v7.11h-1.41v-7.11h-2.6V132h6.67v1.2Z"/><path class="cls-3" d="M202.61,137.57a2.88,2.88,0,0,1-.26,1.25,2.23,2.23,0,0,1-.72.86,3.17,3.17,0,0,1-1.1.5,6.12,6.12,0,0,1-1.4.16h-2.75V132h1.41v2.9h1.44a4.33,4.33,0,0,1,2.48.62A2.29,2.29,0,0,1,202.61,137.57Zm-4.82-1.44v3h1.34a2.79,2.79,0,0,0,1.48-.35,1.23,1.23,0,0,0,.57-1.14,1.32,1.32,0,0,0-.51-1.17,2.55,2.55,0,0,0-1.44-.35Z"/><path class="cls-3" d="M45.33,160.5a3,3,0,0,1-1.66-.45,3.31,3.31,0,0,1-1.11-1.23v4.35H41.15V152h1.23l.15,1.62a3.39,3.39,0,0,1,1.12-1.3,3,3,0,0,1,1.74-.48,3.7,3.7,0,0,1,1.39.27,3.06,3.06,0,0,1,1.16.8,3.63,3.63,0,0,1,.8,1.34,5.45,5.45,0,0,1,.3,1.9,5.51,5.51,0,0,1-.3,1.91,4,4,0,0,1-.82,1.34,3.21,3.21,0,0,1-1.18.8A3.76,3.76,0,0,1,45.33,160.5Zm-.21-1.25a2.25,2.25,0,0,0,1.78-.76,4.21,4.21,0,0,0,0-4.59,2.23,2.23,0,0,0-1.78-.78,2.89,2.89,0,0,0-1,.19,2.3,2.3,0,0,0-.81.57,2.78,2.78,0,0,0-.55,1,4.62,4.62,0,0,0,0,2.69,2.93,2.93,0,0,0,.55,1,2.15,2.15,0,0,0,.81.56A2.68,2.68,0,0,0,45.12,159.25Z"/><path class="cls-3" d="M55.54,158.75a4.44,4.44,0,0,1-.37.6,2.74,2.74,0,0,1-.56.57,3.12,3.12,0,0,1-.79.42,3.44,3.44,0,0,1-1.07.16,2.57,2.57,0,0,1-1.81-.63,2.35,2.35,0,0,1-.68-1.82,2.23,2.23,0,0,1,1-2,4.8,4.8,0,0,1,2.71-.64h1.55v-.69a1.49,1.49,0,0,0-.45-1.23,2.42,2.42,0,0,0-1.53-.37,4.19,4.19,0,0,0-1.46.25,6.36,6.36,0,0,0-1.23.57v-1.27a6.17,6.17,0,0,1,1.21-.53,4.92,4.92,0,0,1,1.67-.27,3.77,3.77,0,0,1,2.38.65,2.39,2.39,0,0,1,.82,2V159c0,.1,0,.21,0,.33s0,.25,0,.38,0,.25,0,.36,0,.2,0,.28H55.68q0-.22-.09-.63a6.62,6.62,0,0,1,0-.72Zm-2.48.5a2.21,2.21,0,0,0,1.12-.27,3,3,0,0,0,.75-.64,2.49,2.49,0,0,0,.41-.71,1.53,1.53,0,0,0,.13-.49v-.61H54.06a3.54,3.54,0,0,0-1.83.36,1.21,1.21,0,0,0-.57,1.09,1.28,1.28,0,0,0,.34.91A1.39,1.39,0,0,0,53.06,159.25Z"/><path class="cls-3" d="M65,157.92a2.43,2.43,0,0,1-.28,1.19,2.33,2.33,0,0,1-.76.8,3.21,3.21,0,0,1-1.12.45,6.28,6.28,0,0,1-1.32.14,6.38,6.38,0,0,1-1.6-.19,3.81,3.81,0,0,1-1.1-.47v-1.26a4.11,4.11,0,0,0,1.18.49,5.91,5.91,0,0,0,1.49.18A3.48,3.48,0,0,0,63,159a1.19,1.19,0,0,0,.1-2,3.31,3.31,0,0,0-1.6-.3H60.4V155.5h1.15a2.32,2.32,0,0,0,1.35-.32,1,1,0,0,0,.46-.92.93.93,0,0,0-.15-.54,1.18,1.18,0,0,0-.41-.35,1.76,1.76,0,0,0-.6-.19,4.23,4.23,0,0,0-.73-.06,5,5,0,0,0-1.37.18,4.18,4.18,0,0,0-1.14.49v-1.26a4.21,4.21,0,0,1,1.08-.47,5.9,5.9,0,0,1,1.54-.19,3.79,3.79,0,0,1,2.3.58,1.92,1.92,0,0,1,.78,1.66,1.81,1.81,0,0,1-.44,1.28A2.41,2.41,0,0,1,63,156a2.47,2.47,0,0,1,1.49.62A1.69,1.69,0,0,1,65,157.92Z"/><path class="cls-3" d="M72.46,156.66h-4v3.68H67V152h1.41v3.43h4V152h1.41v8.31H72.46Z"/><path class="cls-3" d="M82.32,157.57a2.88,2.88,0,0,1-.26,1.25,2.23,2.23,0,0,1-.72.86,3.09,3.09,0,0,1-1.1.5,6.09,6.09,0,0,1-1.39.16H76.18V152h1.4v2.9h1.36a4.31,4.31,0,0,1,2.48.62A2.29,2.29,0,0,1,82.32,157.57Zm-4.74-1.44v3h1.27a2.82,2.82,0,0,0,1.48-.35,1.23,1.23,0,0,0,.57-1.14,1.33,1.33,0,0,0-.52-1.17,2.55,2.55,0,0,0-1.44-.35Zm7.35,4.21H83.52V152h1.41Z"/><path class="cls-3" d="M90,157l-2.24,3.3H86.32l3-4.31-2.66-4H88.3l2,2.93,2-2.93h1.45L91,156l2.9,4.34H92.25Z"/><path class="cls-3" d="M102.14,153.23v7.11h-1.41v-7.11h-2.6V152h6.67v1.2Z"/><path class="cls-3" d="M107.84,158.42l4.43-6.39h1.42v8.31h-1.4V154l-4.42,6.37h-1.44V152h1.41Z"/><path class="cls-3" d="M116,152h6.65v8.31h-1.4v-7.11h-3.84v7.11H116Z"/><path class="cls-3" d="M128.37,160.5a4.36,4.36,0,0,1-1.59-.29,3.53,3.53,0,0,1-1.27-.84,3.86,3.86,0,0,1-.84-1.35,5.79,5.79,0,0,1,0-3.68,3.86,3.86,0,0,1,.84-1.35,3.63,3.63,0,0,1,1.27-.83,4.36,4.36,0,0,1,1.59-.29,4.46,4.46,0,0,1,1.6.29,3.63,3.63,0,0,1,1.27.83,4.2,4.2,0,0,1,.85,1.35,5.62,5.62,0,0,1,0,3.68,4.2,4.2,0,0,1-.85,1.35,3.53,3.53,0,0,1-1.27.84A4.46,4.46,0,0,1,128.37,160.5Zm0-1.25a2.7,2.7,0,0,0,1-.19,2.18,2.18,0,0,0,.82-.56,2.53,2.53,0,0,0,.55-.95,5,5,0,0,0,0-2.73,2.53,2.53,0,0,0-.55-.95,2.18,2.18,0,0,0-.82-.56,2.7,2.7,0,0,0-1-.19,2.63,2.63,0,0,0-1,.19,2.15,2.15,0,0,0-.81.56,2.64,2.64,0,0,0-.53.95,5,5,0,0,0,0,2.73,2.64,2.64,0,0,0,.53.95,2.15,2.15,0,0,0,.81.56A2.63,2.63,0,0,0,128.37,159.25Z"/><path class="cls-3" d="M134.11,152h3.1a4.16,4.16,0,0,1,2.28.52,1.83,1.83,0,0,1,.76,1.63,1.73,1.73,0,0,1-.37,1.17,2.08,2.08,0,0,1-1.07.64,1.83,1.83,0,0,1,1.78,2,2.21,2.21,0,0,1-.26,1.1,2.07,2.07,0,0,1-.7.74,3.09,3.09,0,0,1-1.08.42,7.33,7.33,0,0,1-1.37.13h-3.07Zm1.41,1.2v2.26h1.56a2.51,2.51,0,0,0,1.29-.29.9.9,0,0,0,.49-.83.93.93,0,0,0-.43-.9,2.58,2.58,0,0,0-1.23-.24Zm0,3.38v2.53h1.65a4.92,4.92,0,0,0,.8-.06,1.94,1.94,0,0,0,.63-.2,1,1,0,0,0,.4-.38,1.1,1.1,0,0,0,.15-.59,1.06,1.06,0,0,0-.5-1,3,3,0,0,0-1.48-.29Z"/><path class="cls-3" d="M148.81,162.56A9.24,9.24,0,0,1,147,159.3a12.08,12.08,0,0,1-.61-3.88,13.6,13.6,0,0,1,.15-2,12.58,12.58,0,0,1,.46-1.95,11,11,0,0,1,.77-1.75,8,8,0,0,1,1.08-1.47h1.39a6.62,6.62,0,0,0-1.12,1.44,10.1,10.1,0,0,0-.77,1.74,11.2,11.2,0,0,0-.46,1.94,15.24,15.24,0,0,0-.14,2,12.41,12.41,0,0,0,.6,3.88,9.22,9.22,0,0,0,1.89,3.3Z"/><path class="cls-3" d="M155.47,160.5a4.81,4.81,0,0,1-1.74-.3,3.71,3.71,0,0,1-1.32-.85,3.62,3.62,0,0,1-.83-1.35,5.39,5.39,0,0,1-.29-1.82,5.09,5.09,0,0,1,.3-1.81,3.77,3.77,0,0,1,.84-1.35,3.58,3.58,0,0,1,1.33-.85,4.9,4.9,0,0,1,1.77-.3,5.68,5.68,0,0,1,1.41.17,3,3,0,0,1,1.06.49v1.26a4,4,0,0,0-1.15-.5,5.09,5.09,0,0,0-1.3-.17,2.74,2.74,0,0,0-2.14.76,3.36,3.36,0,0,0-.68,2.3,3.47,3.47,0,0,0,.66,2.32,2.63,2.63,0,0,0,2.08.75,4.65,4.65,0,0,0,1.38-.19,5.43,5.43,0,0,0,1.15-.47v1.26a4.94,4.94,0,0,1-1.08.46A5.31,5.31,0,0,1,155.47,160.5Z"/><path class="cls-3" d="M163.23,153.23v7.11h-1.41v-7.11h-2.61V152h6.67v1.2Z"/><path class="cls-3" d="M171.69,160.5a3,3,0,0,1-1.65-.45,3.25,3.25,0,0,1-1.12-1.23v4.35h-1.4V152h1.23l.14,1.62a3.39,3.39,0,0,1,1.12-1.3,3,3,0,0,1,1.75-.48,3.61,3.61,0,0,1,1.38.27,3.18,3.18,0,0,1,1.17.8,3.92,3.92,0,0,1,.8,1.34,6.3,6.3,0,0,1,0,3.81,3.66,3.66,0,0,1-.82,1.34,3.13,3.13,0,0,1-1.18.8A3.76,3.76,0,0,1,171.69,160.5Zm-.21-1.25a2.29,2.29,0,0,0,1.79-.76,4.21,4.21,0,0,0,0-4.59,2.27,2.27,0,0,0-1.79-.78,2.79,2.79,0,0,0-1,.19,2.25,2.25,0,0,0-.82.57,2.62,2.62,0,0,0-.54,1,4.62,4.62,0,0,0,0,2.69,2.75,2.75,0,0,0,.54,1,2.11,2.11,0,0,0,.82.56A2.59,2.59,0,0,0,171.48,159.25Z"/><path class="cls-3" d="M180.52,160.5a4.35,4.35,0,0,1-1.58-.29,3.53,3.53,0,0,1-1.27-.84,3.86,3.86,0,0,1-.84-1.35,5.62,5.62,0,0,1,0-3.68,3.86,3.86,0,0,1,.84-1.35,3.63,3.63,0,0,1,1.27-.83,4.5,4.5,0,0,1,3.18,0,3.68,3.68,0,0,1,1.28.83,4,4,0,0,1,.84,1.35,5.45,5.45,0,0,1,0,3.68,4,4,0,0,1-.84,1.35,3.56,3.56,0,0,1-1.28.84A4.38,4.38,0,0,1,180.52,160.5Zm0-1.25a2.71,2.71,0,0,0,1-.19,2.18,2.18,0,0,0,.82-.56,2.52,2.52,0,0,0,.54-.95,4.76,4.76,0,0,0,0-2.73,2.52,2.52,0,0,0-.54-.95,2.18,2.18,0,0,0-.82-.56,2.71,2.71,0,0,0-1-.19,2.61,2.61,0,0,0-1,.19,2.15,2.15,0,0,0-.81.56,2.5,2.5,0,0,0-.53.95,4.76,4.76,0,0,0,0,2.73,2.5,2.5,0,0,0,.53.95,2.15,2.15,0,0,0,.81.56A2.61,2.61,0,0,0,180.52,159.25Z"/><path class="cls-3" d="M186.08,154.82h3.84v1.28h-3.84Z"/><path class="cls-3" d="M43.3,176.8h-.74v3.54H41.15V172h1.41v3.57h.8L46.27,172h1.6l-3.41,4.1,3.48,4.21H46.22Z"/><path class="cls-3" d="M50.83,178.42,55.26,172h1.43v8.31H55.28V174l-4.42,6.37H49.42V172h1.41Z"/><path class="cls-3" d="M58.7,182.05a2.92,2.92,0,0,0,.29-.38c.1-.15.19-.31.27-.46a3.35,3.35,0,0,0,.19-.45,2.4,2.4,0,0,0,.1-.38,1,1,0,0,1-.54-.33.92.92,0,0,1-.21-.61,1,1,0,0,1,.26-.69,1,1,0,0,1,1.44,0,1.13,1.13,0,0,1,.28.81,2.86,2.86,0,0,1-.09.7c-.07.24-.15.47-.24.7a4.38,4.38,0,0,1-.33.61,2.63,2.63,0,0,1-.36.46Z"/><path class="cls-3" d="M72.77,180.34H71.36v-3.65a3.27,3.27,0,0,1-1,.52,4.28,4.28,0,0,1-1.29.18,3.05,3.05,0,0,1-2.15-.69,2.94,2.94,0,0,1-.74-2.24V172H67.6v2.45a1.72,1.72,0,0,0,.45,1.36,1.86,1.86,0,0,0,1.26.38,3.64,3.64,0,0,0,1.09-.16,2.91,2.91,0,0,0,1-.49V172h1.41Z"/><path class="cls-3" d="M76.48,178.42,80.91,172h1.43v8.31H80.93V174l-4.42,6.37H75.07V172h1.41Z"/><path class="cls-3" d="M88.22,180.5a4.76,4.76,0,0,1-1.73-.3,3.55,3.55,0,0,1-2.15-2.2,5.15,5.15,0,0,1-.29-1.82,5.33,5.33,0,0,1,.29-1.81,3.59,3.59,0,0,1,2.17-2.2,5,5,0,0,1,1.78-.3,5.68,5.68,0,0,1,1.41.17,3,3,0,0,1,1,.49v1.26a3.91,3.91,0,0,0-1.14-.5,5.17,5.17,0,0,0-1.31-.17,2.7,2.7,0,0,0-2.13.76,3.31,3.31,0,0,0-.68,2.3,3.53,3.53,0,0,0,.65,2.32,2.63,2.63,0,0,0,2.08.75,4.67,4.67,0,0,0,1.39-.19,5.34,5.34,0,0,0,1.14-.47v1.26a4.94,4.94,0,0,1-1.08.46A5.25,5.25,0,0,1,88.22,180.5Z"/><path class="cls-3" d="M93.28,177.76a10.23,10.23,0,0,0,.29-2.21c0-.93.06-2.1.06-3.52h5.59v8.31H97.79v-7.11H95c0,1.14,0,2.16-.1,3a10.32,10.32,0,0,1-.37,2.24,3,3,0,0,1-.82,1.39,2.11,2.11,0,0,1-1.43.47h-.13l-.14,0V179l.21,0C92.72,179,93.09,178.57,93.28,177.76Z"/><path class="cls-3" d="M106.37,178.75a4.44,4.44,0,0,1-.37.6,2.74,2.74,0,0,1-.56.57,3,3,0,0,1-.79.42,3.44,3.44,0,0,1-1.07.16,2.55,2.55,0,0,1-1.8-.63,2.36,2.36,0,0,1-.69-1.82,2.25,2.25,0,0,1,1-2,4.8,4.8,0,0,1,2.71-.64h1.55v-.69a1.52,1.52,0,0,0-.44-1.23,2.45,2.45,0,0,0-1.54-.37,4.19,4.19,0,0,0-1.46.25,6.65,6.65,0,0,0-1.23.57v-1.27a6.17,6.17,0,0,1,1.21-.53,5,5,0,0,1,1.67-.27,3.8,3.8,0,0,1,2.39.65,2.41,2.41,0,0,1,.81,2V179c0,.1,0,.21,0,.33s0,.25,0,.38,0,.25,0,.36,0,.2,0,.28h-1.28q0-.22-.09-.63c0-.28,0-.51,0-.72Zm-2.48.5A2.19,2.19,0,0,0,105,179a2.75,2.75,0,0,0,1.17-1.35,1.74,1.74,0,0,0,.12-.49v-.61h-1.4a3.56,3.56,0,0,0-1.84.36,1.2,1.2,0,0,0-.56,1.09,1.27,1.27,0,0,0,.33.91A1.4,1.4,0,0,0,103.89,179.25Z"/><path class="cls-3" d="M110.69,180.43a1,1,0,0,1-.75-.29,1.05,1.05,0,0,1,0-1.45,1,1,0,0,1,.75-.29,1,1,0,0,1,.73.29,1.05,1.05,0,0,1,0,1.45A1,1,0,0,1,110.69,180.43Z"/><path class="cls-3" d="M114.51,180.43a1,1,0,0,1-1-1,1,1,0,0,1,.29-.73,1.1,1.1,0,0,1,1.49,0,1,1,0,0,1-.74,1.74Z"/><path class="cls-3" d="M118.34,180.43a1.06,1.06,0,0,1-.76-.29,1.08,1.08,0,0,1,0-1.45,1.06,1.06,0,0,1,.76-.29,1,1,0,1,1,0,2Z"/><path class="cls-3" d="M120.77,182.56a9.22,9.22,0,0,0,1.89-3.3,12.41,12.41,0,0,0,.6-3.88,13.72,13.72,0,0,0-.14-2,11.2,11.2,0,0,0-.46-1.94,9.38,9.38,0,0,0-.77-1.74,6.33,6.33,0,0,0-1.12-1.44h1.39a7.14,7.14,0,0,1,1.08,1.47,11,11,0,0,1,.77,1.75,11.53,11.53,0,0,1,.46,1.95,13.6,13.6,0,0,1,.15,2,12.36,12.36,0,0,1-.6,3.88,9.42,9.42,0,0,1-1.86,3.26Z"/><path class="cls-3" d="M127.82,180.43a1,1,0,0,1-1-1,1,1,0,0,1,.29-.73,1.1,1.1,0,0,1,1.49,0,1,1,0,0,1-.74,1.74Z"/><path class="cls-3" d="M244.83,144.61a7.07,7.07,0,0,1-.41,2.47,5.36,5.36,0,0,1-1.17,1.86,5.12,5.12,0,0,1-1.82,1.16,6.79,6.79,0,0,1-2.36.4,6.36,6.36,0,0,1-2.12-.31,4.45,4.45,0,0,1-1.35-.67v-1.44a5.27,5.27,0,0,0,1.62.82,6.3,6.3,0,0,0,1.74.24,4.37,4.37,0,0,0,3-1,4.2,4.2,0,0,0,1.19-3h-5.39v-1.36h5.38a4.31,4.31,0,0,0-1.12-2.82,3.84,3.84,0,0,0-2.8-.94,7.4,7.4,0,0,0-1.8.23,6.16,6.16,0,0,0-1.64.68v-1.44a6,6,0,0,1,1.42-.58,7.1,7.1,0,0,1,2-.25,6.54,6.54,0,0,1,2.39.4,4.59,4.59,0,0,1,1.76,1.16,4.86,4.86,0,0,1,1.08,1.85A7.56,7.56,0,0,1,244.83,144.61Z"/><path class="cls-3" d="M247.06,147.76a10.33,10.33,0,0,0,.28-2.21c0-.93.07-2.1.07-3.52H253v8.31h-1.42v-7.11h-2.83c0,1.14-.05,2.16-.11,3a9.75,9.75,0,0,1-.37,2.24,3,3,0,0,1-.81,1.39,2.12,2.12,0,0,1-1.43.47h-.13l-.15,0V149l.21,0C246.5,149,246.86,148.57,247.06,147.76Z"/><path class="cls-3" d="M261.89,149.64l-.43.27a5.55,5.55,0,0,1-.63.28,5.23,5.23,0,0,1-.83.22,5.52,5.52,0,0,1-1,.09,4.18,4.18,0,0,1-3.18-1.14,4.4,4.4,0,0,1-1.09-3.18,5.33,5.33,0,0,1,.29-1.81,3.9,3.9,0,0,1,.83-1.35,3.66,3.66,0,0,1,1.24-.85,4.1,4.1,0,0,1,1.57-.3,3.87,3.87,0,0,1,1.6.31,2.85,2.85,0,0,1,1.16.89,3.51,3.51,0,0,1,.63,1.47,6,6,0,0,1,0,2h-5.86a2.89,2.89,0,0,0,.8,2,3,3,0,0,0,2.15.67,4.53,4.53,0,0,0,1.65-.27,6.78,6.78,0,0,0,1.15-.6Zm-3.3-6.52a2.36,2.36,0,0,0-1.57.56,2.72,2.72,0,0,0-.83,1.7h4.47a2.1,2.1,0,0,0-.53-1.71A2.17,2.17,0,0,0,258.59,143.12Z"/><path class="cls-3" d="M271.81,143.67,269,149.41h-1.12l-2.66-5.78v6.71h-1.32V142H266l2.55,5.57,2.72-5.57h1.95v8.31h-1.39Z"/><path class="cls-3" d="M282.11,149.64l-.43.27a4.85,4.85,0,0,1-.63.28,5.23,5.23,0,0,1-.83.22,5.44,5.44,0,0,1-1,.09,4.19,4.19,0,0,1-3.18-1.14,4.4,4.4,0,0,1-1.09-3.18,5.09,5.09,0,0,1,.3-1.81A3.74,3.74,0,0,1,276,143a3.6,3.6,0,0,1,1.25-.85,4,4,0,0,1,1.57-.3,3.9,3.9,0,0,1,1.6.31,2.92,2.92,0,0,1,1.16.89,3.5,3.5,0,0,1,.62,1.47,6,6,0,0,1,0,2h-5.85a2.85,2.85,0,0,0,.8,2,3,3,0,0,0,2.14.67A4.53,4.53,0,0,0,281,149a6.42,6.42,0,0,0,1.15-.6Zm-3.3-6.52a2.33,2.33,0,0,0-1.56.56,2.62,2.62,0,0,0-.83,1.7h4.46a2.06,2.06,0,0,0-.53-1.71A2.15,2.15,0,0,0,278.81,143.12Z"/><path class="cls-3" d="M289.54,146.66h-4v3.68h-1.41V142h1.41v3.43h4V142h1.4v8.31h-1.4Z"/><path class="cls-3" d="M296.59,143.23v7.11h-1.41v-7.11h-2.6V142h6.67v1.2Z"/><path class="cls-3" d="M307,147.57a2.88,2.88,0,0,1-.25,1.25,2.23,2.23,0,0,1-.72.86,3.14,3.14,0,0,1-1.11.5,6,6,0,0,1-1.39.16h-2.67V142h1.41v2.9h1.36a4.35,4.35,0,0,1,2.48.62A2.31,2.31,0,0,1,307,147.57Zm-4.73-1.44v3h1.26a2.82,2.82,0,0,0,1.48-.35,1.23,1.23,0,0,0,.57-1.14,1.32,1.32,0,0,0-.51-1.17,2.58,2.58,0,0,0-1.44-.35Zm7.34,4.21h-1.41V142h1.41Z"/><path class="cls-3" d="M323.37,143.67l-2.81,5.74h-1.12l-2.66-5.78v6.71h-1.33V142h2.1l2.54,5.57,2.72-5.57h2v8.31h-1.4Z"/><path class="cls-3" d="M330.48,150.5a4.36,4.36,0,0,1-1.59-.29,3.53,3.53,0,0,1-1.27-.84,3.86,3.86,0,0,1-.84-1.35,5.79,5.79,0,0,1,0-3.68,3.86,3.86,0,0,1,.84-1.35,3.63,3.63,0,0,1,1.27-.83,4.36,4.36,0,0,1,1.59-.29,4.42,4.42,0,0,1,1.6.29,3.63,3.63,0,0,1,1.27.83,4,4,0,0,1,.85,1.35,5.62,5.62,0,0,1,0,3.68,4,4,0,0,1-.85,1.35,3.53,3.53,0,0,1-1.27.84A4.42,4.42,0,0,1,330.48,150.5Zm0-1.25a2.66,2.66,0,0,0,1-.19,2.18,2.18,0,0,0,.82-.56,2.53,2.53,0,0,0,.55-.95,5,5,0,0,0,0-2.73,2.53,2.53,0,0,0-.55-.95,2.18,2.18,0,0,0-.82-.56,2.66,2.66,0,0,0-1-.19,2.63,2.63,0,0,0-1,.19,2,2,0,0,0-.8.56,2.66,2.66,0,0,0-.54.95,5,5,0,0,0,0,2.73,2.66,2.66,0,0,0,.54.95,2,2,0,0,0,.8.56A2.63,2.63,0,0,0,330.48,149.25Z"/><path class="cls-3" d="M341.55,142v3.57h.75l2.64-3.57h1.56l-3.09,4.07,3.2,4.24h-1.72l-2.65-3.54h-.69v3.54h-1.41V146.8h-.7l-2.69,3.54h-1.66l3.2-4.2L335.2,142h1.62l2.59,3.57h.73V142Z"/><path class="cls-3" d="M353.52,146.66h-4v3.68h-1.41V142h1.41v3.43h4V142h1.41v8.31h-1.41Z"/><path class="cls-3" d="M360.64,150.5a4.36,4.36,0,0,1-1.59-.29,3.53,3.53,0,0,1-1.27-.84,3.86,3.86,0,0,1-.84-1.35,5.79,5.79,0,0,1,0-3.68,3.86,3.86,0,0,1,.84-1.35,3.63,3.63,0,0,1,1.27-.83,4.36,4.36,0,0,1,1.59-.29,4.42,4.42,0,0,1,1.6.29,3.63,3.63,0,0,1,1.27.83,4,4,0,0,1,.85,1.35,5.62,5.62,0,0,1,0,3.68,4,4,0,0,1-.85,1.35,3.53,3.53,0,0,1-1.27.84A4.42,4.42,0,0,1,360.64,150.5Zm0-1.25a2.66,2.66,0,0,0,1-.19,2.18,2.18,0,0,0,.82-.56,2.53,2.53,0,0,0,.55-.95,5,5,0,0,0,0-2.73,2.53,2.53,0,0,0-.55-.95,2.18,2.18,0,0,0-.82-.56,2.66,2.66,0,0,0-1-.19,2.63,2.63,0,0,0-1,.19,2.11,2.11,0,0,0-.8.56,2.66,2.66,0,0,0-.54.95,5,5,0,0,0,0,2.73,2.66,2.66,0,0,0,.54.95,2.11,2.11,0,0,0,.8.56A2.63,2.63,0,0,0,360.64,149.25Z"/><path class="cls-3" d="M224.44,162h6.66v8.31h-1.41v-7.11h-3.84v7.11h-1.41Z"/><path class="cls-3" d="M240,169.64l-.43.27a4.85,4.85,0,0,1-.63.28,5.23,5.23,0,0,1-.83.22,5.52,5.52,0,0,1-1,.09,4.18,4.18,0,0,1-3.18-1.14,4.4,4.4,0,0,1-1.09-3.18,5.09,5.09,0,0,1,.3-1.81,3.74,3.74,0,0,1,.82-1.35,3.6,3.6,0,0,1,1.25-.85,4,4,0,0,1,1.57-.3,3.82,3.82,0,0,1,1.59.31,2.85,2.85,0,0,1,1.16.89,3.39,3.39,0,0,1,.63,1.47,6,6,0,0,1,0,2h-5.86a2.85,2.85,0,0,0,.81,2,3,3,0,0,0,2.14.67,4.53,4.53,0,0,0,1.65-.27,6.42,6.42,0,0,0,1.15-.6Zm-3.3-6.52a2.33,2.33,0,0,0-1.56.56,2.68,2.68,0,0,0-.84,1.7h4.47a2.1,2.1,0,0,0-.53-1.71A2.17,2.17,0,0,0,236.71,163.12Z"/><path class="cls-3" d="M246.19,170.5a3,3,0,0,1-1.66-.45,3.23,3.23,0,0,1-1.11-1.23v4.35H242V162h1.23l.15,1.62a3.31,3.31,0,0,1,1.12-1.3,3,3,0,0,1,1.74-.48,3.61,3.61,0,0,1,1.38.27,3,3,0,0,1,1.17.8,3.76,3.76,0,0,1,.8,1.34,5.45,5.45,0,0,1,.3,1.9,5.28,5.28,0,0,1-.31,1.91,3.78,3.78,0,0,1-.81,1.34,3.17,3.17,0,0,1-1.19.8A3.67,3.67,0,0,1,246.19,170.5Zm-.21-1.25a2.26,2.26,0,0,0,1.78-.76,4.21,4.21,0,0,0,0-4.59,2.25,2.25,0,0,0-1.78-.78,2.85,2.85,0,0,0-1,.19,2.21,2.21,0,0,0-.81.57,2.63,2.63,0,0,0-.55,1,4.62,4.62,0,0,0,0,2.69,2.77,2.77,0,0,0,.55,1,2.07,2.07,0,0,0,.81.56A2.64,2.64,0,0,0,246,169.25Z"/><path class="cls-3" d="M258.22,169.64l-.43.27a5.55,5.55,0,0,1-.63.28,5.23,5.23,0,0,1-.83.22,5.52,5.52,0,0,1-1,.09,4.18,4.18,0,0,1-3.18-1.14,4.4,4.4,0,0,1-1.09-3.18,5.33,5.33,0,0,1,.29-1.81,3.9,3.9,0,0,1,.83-1.35,3.66,3.66,0,0,1,1.24-.85,4.1,4.1,0,0,1,1.57-.3,3.87,3.87,0,0,1,1.6.31,2.85,2.85,0,0,1,1.16.89,3.51,3.51,0,0,1,.63,1.47,6,6,0,0,1,0,2h-5.86a2.89,2.89,0,0,0,.8,2,3,3,0,0,0,2.15.67,4.53,4.53,0,0,0,1.65-.27,6.78,6.78,0,0,0,1.15-.6Zm-3.3-6.52a2.36,2.36,0,0,0-1.57.56,2.72,2.72,0,0,0-.83,1.7H257a2.1,2.1,0,0,0-.53-1.71A2.17,2.17,0,0,0,254.92,163.12Z"/><path class="cls-3" d="M267.7,166.18a5,5,0,0,1-.31,1.84,4,4,0,0,1-.85,1.35,3.44,3.44,0,0,1-1.27.84,4.38,4.38,0,0,1-1.6.29,4.23,4.23,0,0,1-1.61-.3,3.35,3.35,0,0,1-1.27-.9,4.42,4.42,0,0,1-.82-1.54,7.16,7.16,0,0,1-.3-2.19c0-.69,0-1.36.07-2a8.65,8.65,0,0,1,.28-1.75,5.17,5.17,0,0,1,.65-1.45,3.51,3.51,0,0,1,1.15-1.08,3.21,3.21,0,0,1,.83-.36c.29-.08.58-.14.87-.19a8.65,8.65,0,0,1,.89-.08l.88,0a5.65,5.65,0,0,0,1.07-.16,3.34,3.34,0,0,0,.77-.3v1.28a2.34,2.34,0,0,1-.75.31,8,8,0,0,1-.95.15l-1.67.12a3.43,3.43,0,0,0-1.38.36,2.42,2.42,0,0,0-1.13,1.34,7.31,7.31,0,0,0-.41,2.1,3.11,3.11,0,0,1,3.14-1.92,3.72,3.72,0,0,1,1.46.28,3.25,3.25,0,0,1,1.18.83,3.9,3.9,0,0,1,.8,1.33A5.35,5.35,0,0,1,267.7,166.18Zm-4,3.07a2.63,2.63,0,0,0,1-.19,2.22,2.22,0,0,0,.83-.56,2.66,2.66,0,0,0,.54-.95,5,5,0,0,0,0-2.73,2.66,2.66,0,0,0-.54-.95,2.22,2.22,0,0,0-.83-.56,2.63,2.63,0,0,0-1-.19,2.49,2.49,0,0,0-1.83.74,3.11,3.11,0,0,0-.73,2.28,4.69,4.69,0,0,0,.19,1.38,2.71,2.71,0,0,0,.54,1,2.15,2.15,0,0,0,.81.56A2.61,2.61,0,0,0,263.67,169.25Z"/><path class="cls-3" d="M270.87,168.42,275.3,162h1.43v8.31h-1.41V164l-4.42,6.37h-1.44V162h1.41Z"/><path class="cls-3" d="M283.21,170.5a3,3,0,0,1-1.66-.45,3.31,3.31,0,0,1-1.11-1.23v4.35H279V162h1.23l.15,1.62a3.39,3.39,0,0,1,1.12-1.3,3,3,0,0,1,1.74-.48,3.7,3.7,0,0,1,1.39.27,3.18,3.18,0,0,1,1.17.8,3.75,3.75,0,0,1,.79,1.34,5.45,5.45,0,0,1,.3,1.9,5.51,5.51,0,0,1-.3,1.91,4,4,0,0,1-.82,1.34,3.21,3.21,0,0,1-1.18.8A3.76,3.76,0,0,1,283.21,170.5Zm-.21-1.25a2.29,2.29,0,0,0,1.79-.76,4.27,4.27,0,0,0,0-4.59,2.27,2.27,0,0,0-1.79-.78,2.89,2.89,0,0,0-1,.19,2.3,2.3,0,0,0-.81.57,2.78,2.78,0,0,0-.55,1,4.62,4.62,0,0,0,0,2.69,2.93,2.93,0,0,0,.55,1,2.15,2.15,0,0,0,.81.56A2.68,2.68,0,0,0,283,169.25Z"/><path class="cls-3" d="M293.42,168.75a4.44,4.44,0,0,1-.37.6,2.74,2.74,0,0,1-.56.57,3.12,3.12,0,0,1-.79.42,3.44,3.44,0,0,1-1.07.16,2.59,2.59,0,0,1-1.81-.63,2.39,2.39,0,0,1-.68-1.82,2.23,2.23,0,0,1,.95-2,4.8,4.8,0,0,1,2.71-.64h1.55v-.69a1.49,1.49,0,0,0-.45-1.23,2.4,2.4,0,0,0-1.53-.37,4.19,4.19,0,0,0-1.46.25,6.36,6.36,0,0,0-1.23.57v-1.27a6.17,6.17,0,0,1,1.21-.53,4.92,4.92,0,0,1,1.67-.27,3.75,3.75,0,0,1,2.38.65,2.39,2.39,0,0,1,.82,2V169c0,.1,0,.21,0,.33s0,.25,0,.38l0,.36c0,.11,0,.2,0,.28h-1.28q0-.22-.09-.63c0-.28,0-.51,0-.72Zm-2.48.5a2.21,2.21,0,0,0,1.12-.27,2.81,2.81,0,0,0,.75-.64,2.49,2.49,0,0,0,.41-.71,1.53,1.53,0,0,0,.13-.49v-.61h-1.41a3.54,3.54,0,0,0-1.83.36,1.21,1.21,0,0,0-.57,1.09,1.28,1.28,0,0,0,.34.91A1.39,1.39,0,0,0,290.94,169.25Z"/><path class="cls-3" d="M300.23,163.23v7.11h-1.41v-7.11h-2.6V162h6.67v1.2Z"/><path class="cls-3" d="M310.7,167.57a2.88,2.88,0,0,1-.26,1.25,2.23,2.23,0,0,1-.72.86,3.17,3.17,0,0,1-1.1.5,6.09,6.09,0,0,1-1.39.16h-2.76V162h1.41v2.9h1.44a4.33,4.33,0,0,1,2.48.62A2.29,2.29,0,0,1,310.7,167.57Zm-4.82-1.44v3h1.35a2.84,2.84,0,0,0,1.48-.35,1.24,1.24,0,0,0,.56-1.14,1.32,1.32,0,0,0-.51-1.17,2.55,2.55,0,0,0-1.44-.35Z"/><path class="cls-3" d="M312.2,172.05a4.18,4.18,0,0,0,.29-.38l.26-.46a2.42,2.42,0,0,0,.19-.45,2.54,2.54,0,0,0,.11-.38,1,1,0,0,1-.55-.33,1,1,0,0,1-.2-.61.94.94,0,0,1,1-1,1,1,0,0,1,.73.31,1.13,1.13,0,0,1,.28.81,2.47,2.47,0,0,1-.1.7,4.45,4.45,0,0,1-.24.7,3.51,3.51,0,0,1-.32.61,4.13,4.13,0,0,1-.36.46Z"/><path class="cls-3" d="M321.24,168.42l4.43-6.39h1.43v8.31h-1.41V164l-4.42,6.37h-1.44V162h1.41Z"/><path class="cls-3" d="M333,170.5a4.76,4.76,0,0,1-1.73-.3,3.55,3.55,0,0,1-2.15-2.2,5.15,5.15,0,0,1-.29-1.82,5.33,5.33,0,0,1,.29-1.81,3.59,3.59,0,0,1,2.17-2.2,5,5,0,0,1,1.78-.3,5.68,5.68,0,0,1,1.41.17,3,3,0,0,1,1.05.49v1.26a3.91,3.91,0,0,0-1.14-.5,5.17,5.17,0,0,0-1.31-.17,2.7,2.7,0,0,0-2.13.76,3.31,3.31,0,0,0-.68,2.3,3.53,3.53,0,0,0,.65,2.32,2.63,2.63,0,0,0,2.08.75,4.67,4.67,0,0,0,1.39-.19,5.34,5.34,0,0,0,1.14-.47v1.26a4.94,4.94,0,0,1-1.08.46A5.25,5.25,0,0,1,333,170.5Z"/><path class="cls-3" d="M337.4,162h6.66v8.31h-1.41v-7.11h-3.84v7.11H337.4Z"/><path class="cls-3" d="M349.77,170.5a4.4,4.4,0,0,1-1.59-.29,3.53,3.53,0,0,1-1.27-.84,4.18,4.18,0,0,1-.84-1.35,5.79,5.79,0,0,1,0-3.68,4.18,4.18,0,0,1,.84-1.35,3.63,3.63,0,0,1,1.27-.83,4.53,4.53,0,0,1,3.19,0,3.63,3.63,0,0,1,1.27.83,4,4,0,0,1,.85,1.35,5.62,5.62,0,0,1,0,3.68,4,4,0,0,1-.85,1.35,3.53,3.53,0,0,1-1.27.84A4.42,4.42,0,0,1,349.77,170.5Zm0-1.25a2.66,2.66,0,0,0,1-.19,2.11,2.11,0,0,0,.82-.56,2.53,2.53,0,0,0,.55-.95,5,5,0,0,0,0-2.73,2.53,2.53,0,0,0-.55-.95,2.11,2.11,0,0,0-.82-.56,2.66,2.66,0,0,0-1-.19,2.58,2.58,0,0,0-1,.19,2.15,2.15,0,0,0-.81.56,2.66,2.66,0,0,0-.54.95,5,5,0,0,0,0,2.73,2.66,2.66,0,0,0,.54.95,2.15,2.15,0,0,0,.81.56A2.58,2.58,0,0,0,349.77,169.25Z"/><path class="cls-3" d="M355.91,167.76a10.23,10.23,0,0,0,.29-2.21c0-.93.06-2.1.06-3.52h5.59v8.31h-1.43v-7.11h-2.83c0,1.14,0,2.16-.1,3a9.75,9.75,0,0,1-.37,2.24,3,3,0,0,1-.82,1.39,2.09,2.09,0,0,1-1.43.47h-.13l-.14,0V169l.21,0C355.35,169,355.72,168.57,355.91,167.76Z"/><path class="cls-3" d="M370.31,167.57a2.88,2.88,0,0,1-.25,1.25,2.35,2.35,0,0,1-.73.86,3,3,0,0,1-1.1.5,6.09,6.09,0,0,1-1.39.16h-2.75V162h1.41v2.9h1.44a4.35,4.35,0,0,1,2.48.62A2.31,2.31,0,0,1,370.31,167.57Zm-4.81-1.44v3h1.34a2.82,2.82,0,0,0,1.48-.35,1.23,1.23,0,0,0,.57-1.14,1.3,1.3,0,0,0-.52-1.17,2.54,2.54,0,0,0-1.43-.35Z"/><path class="cls-3" d="M371.91,164.82h3.84v1.28h-3.84Z"/><path class="cls-3" d="M260.52,187.92a2.23,2.23,0,0,1-1,2,3.24,3.24,0,0,1-1.11.45,6.28,6.28,0,0,1-1.32.14,6.41,6.41,0,0,1-1.61-.19,3.94,3.94,0,0,1-1.1-.47v-1.26a4.17,4.17,0,0,0,1.19.49,5.85,5.85,0,0,0,1.49.18,3.46,3.46,0,0,0,1.52-.3,1.19,1.19,0,0,0,.1-2,3.29,3.29,0,0,0-1.59-.3h-1.11V185.5h1.16a2.31,2.31,0,0,0,1.34-.32,1,1,0,0,0,.46-.92.93.93,0,0,0-.15-.54,1.18,1.18,0,0,0-.41-.35,1.76,1.76,0,0,0-.6-.19,4.2,4.2,0,0,0-.72-.06,5,5,0,0,0-1.37.18,4.38,4.38,0,0,0-1.15.49v-1.26a4.21,4.21,0,0,1,1.08-.47,6,6,0,0,1,1.55-.19,3.75,3.75,0,0,1,2.29.58,1.92,1.92,0,0,1,.78,1.66,1.81,1.81,0,0,1-.44,1.28,2.37,2.37,0,0,1-1.24.64,2.53,2.53,0,0,1,1.5.62A1.72,1.72,0,0,1,260.52,187.92Z"/><path class="cls-3" d="M265.9,191.56a5,5,0,0,1-.72,1,2.63,2.63,0,0,1-.9.6,3.09,3.09,0,0,1-1.14.2,3.65,3.65,0,0,1-.59,0,1.86,1.86,0,0,1-.49-.14v-1.34a1.39,1.39,0,0,0,.44.2,2.3,2.3,0,0,0,.6.07,1.57,1.57,0,0,0,1-.28,2.92,2.92,0,0,0,.74-.9L261.43,182H263l2.64,7,2.63-7h1.36l-3.11,8.21A10.31,10.31,0,0,1,265.9,191.56Z"/><path class="cls-3" d="M270.6,184.72a2.67,2.67,0,0,1,.26-1.21,2.3,2.3,0,0,1,.72-.83,3.26,3.26,0,0,1,1.1-.49,6.09,6.09,0,0,1,1.39-.16h2.68v8.31h-1.41v-3h-1.52l-2.13,3H270l2.4-3.36a2.85,2.85,0,0,1-1.34-.79A2.14,2.14,0,0,1,270.6,184.72Zm4.74,1.41v-2.9h-1.27a2.86,2.86,0,0,0-1.47.34,1.17,1.17,0,0,0-.57,1.09,1.27,1.27,0,0,0,.51,1.13,2.65,2.65,0,0,0,1.45.34Z"/><path class="cls-3" d="M289.34,190.34h-6.77V182H284v7.11h4.08V182h1.4v7.11h1.25v3.57h-1.2Z"/><path class="cls-3" d="M293.59,188.42,298,182h1.42v8.31H298V184l-4.42,6.37h-1.43V182h1.4Z"/><path class="cls-3" d="M303.9,186.8h-.74v3.54h-1.41V182h1.41v3.57h.8l2.91-3.57h1.6l-3.41,4.1,3.48,4.21h-1.72Z"/><path class="cls-3" d="M310.66,187.76a10.23,10.23,0,0,0,.29-2.21c0-.93.07-2.1.07-3.52h5.58v8.31h-1.42v-7.11h-2.84c0,1.14,0,2.16-.1,3a9.75,9.75,0,0,1-.37,2.24,3,3,0,0,1-.81,1.39,2.13,2.13,0,0,1-1.44.47h-.12l-.15,0V189l.21,0C310.1,189,310.47,188.57,310.66,187.76Z"/><path class="cls-3" d="M324.71,183.54v6.8h-1.84v-6.8h-1V182h1v-.14a3.1,3.1,0,0,1,.87-2.34,3.18,3.18,0,0,1,2.3-.83,6.6,6.6,0,0,1,.69,0,1.85,1.85,0,0,1,.49.12v1.56a2.36,2.36,0,0,0-.41-.12,3.93,3.93,0,0,0-.63-.05,1.45,1.45,0,0,0-1.07.4,1.64,1.64,0,0,0-.4,1.23V182h2.34v1.51Z"/><path class="cls-3" d="M331.89,190.5a4.58,4.58,0,0,1-1.63-.29,3.64,3.64,0,0,1-1.3-.84,3.93,3.93,0,0,1-.87-1.35,5.26,5.26,0,0,1-.31-1.84,5.17,5.17,0,0,1,.31-1.84A3.75,3.75,0,0,1,329,183a3.64,3.64,0,0,1,1.3-.84,4.81,4.81,0,0,1,1.63-.28,4.87,4.87,0,0,1,1.64.28,3.77,3.77,0,0,1,1.31.84,3.9,3.9,0,0,1,.88,1.35,5,5,0,0,1,.32,1.84,5,5,0,0,1-.32,1.84,4.1,4.1,0,0,1-.88,1.35,3.77,3.77,0,0,1-1.31.84A4.63,4.63,0,0,1,331.89,190.5Zm0-1.54a2.11,2.11,0,0,0,1.6-.67,3.81,3.81,0,0,0,0-4.2,2.12,2.12,0,0,0-1.6-.68,2.06,2.06,0,0,0-1.57.68,3.81,3.81,0,0,0,0,4.2A2,2,0,0,0,331.89,189Z"/><path class="cls-3" d="M340.57,184.11a2.3,2.3,0,0,0-1.12,1v5.27h-1.86V182h1.7l.13,1.73h0a3.64,3.64,0,0,1,1.09-1.28,3.4,3.4,0,0,1,1.67-.61v2A4,4,0,0,0,340.57,184.11Z"/><path class="cls-3" d="M344.61,190.43a1,1,0,0,1-1-1,1,1,0,0,1,.29-.73,1.1,1.1,0,0,1,1.49,0,1,1,0,0,1-.74,1.74Z"/><path class="cls-3" d="M420.06,134.61a7.07,7.07,0,0,1-.41,2.47,5.36,5.36,0,0,1-1.17,1.86,5.12,5.12,0,0,1-1.82,1.16,6.79,6.79,0,0,1-2.36.4,6.4,6.4,0,0,1-2.12-.31,4.45,4.45,0,0,1-1.35-.67v-1.44a5.21,5.21,0,0,0,1.63.82,6.23,6.23,0,0,0,1.73.24,4.37,4.37,0,0,0,3-1,4.25,4.25,0,0,0,1.2-3H413v-1.36h5.38a4.31,4.31,0,0,0-1.12-2.82,3.82,3.82,0,0,0-2.8-.94,7.4,7.4,0,0,0-1.8.23A6.16,6.16,0,0,0,411,131v-1.44a6,6,0,0,1,1.42-.58,7.15,7.15,0,0,1,2-.25,6.64,6.64,0,0,1,2.4.4,4.75,4.75,0,0,1,1.76,1.16,5.14,5.14,0,0,1,1.08,1.85A7.85,7.85,0,0,1,420.06,134.61Z"/><path class="cls-3" d="M422.29,137.76a10.9,10.9,0,0,0,.29-2.21c0-.93.06-2.1.06-3.52h5.58v8.31H426.8v-7.11H424c0,1.14-.05,2.16-.11,3a9.8,9.8,0,0,1-.36,2.24,3,3,0,0,1-.82,1.39,2.11,2.11,0,0,1-1.43.47h-.13l-.14,0V139l.2,0C421.73,139,422.1,138.57,422.29,137.76Z"/><path class="cls-3" d="M437.12,139.64l-.43.27a4.85,4.85,0,0,1-.63.28,5.23,5.23,0,0,1-.83.22,5.44,5.44,0,0,1-1,.09,4.18,4.18,0,0,1-3.18-1.14,4.4,4.4,0,0,1-1.09-3.18,5.09,5.09,0,0,1,.3-1.81A3.74,3.74,0,0,1,431,133a3.6,3.6,0,0,1,1.25-.85,4,4,0,0,1,1.57-.3,3.9,3.9,0,0,1,1.6.31,3,3,0,0,1,1.16.89,3.5,3.5,0,0,1,.62,1.47,6,6,0,0,1,0,2h-5.86a2.9,2.9,0,0,0,.81,2,3,3,0,0,0,2.14.67A4.53,4.53,0,0,0,436,139a6.42,6.42,0,0,0,1.15-.6Zm-3.3-6.52a2.33,2.33,0,0,0-1.56.56,2.68,2.68,0,0,0-.84,1.7h4.47a2.1,2.1,0,0,0-.53-1.71A2.17,2.17,0,0,0,433.82,133.12Z"/><path class="cls-3" d="M447,133.67l-2.82,5.74H443.1l-2.65-5.78v6.71h-1.33V132h2.09l2.55,5.57,2.72-5.57h1.95v8.31H447Z"/><path class="cls-3" d="M457.34,139.64c-.11.08-.26.17-.43.27a5.33,5.33,0,0,1-.62.28,5.88,5.88,0,0,1-.83.22,5.52,5.52,0,0,1-1,.09,4.22,4.22,0,0,1-3.19-1.14,4.44,4.44,0,0,1-1.09-3.18,5.09,5.09,0,0,1,.3-1.81,3.88,3.88,0,0,1,.82-1.35,3.7,3.7,0,0,1,1.25-.85,4,4,0,0,1,1.57-.3,3.87,3.87,0,0,1,1.6.31,2.85,2.85,0,0,1,1.16.89,3.5,3.5,0,0,1,.62,1.47,5.93,5.93,0,0,1,0,2H451.6a2.85,2.85,0,0,0,.8,2,3,3,0,0,0,2.14.67,4.53,4.53,0,0,0,1.65-.27,6.42,6.42,0,0,0,1.15-.6Zm-3.29-6.52a2.36,2.36,0,0,0-1.57.56,2.62,2.62,0,0,0-.83,1.7h4.46a2.06,2.06,0,0,0-.53-1.71A2.13,2.13,0,0,0,454.05,133.12Z"/><path class="cls-3" d="M464.77,136.66h-4v3.68h-1.41V132h1.41v3.43h4V132h1.41v8.31h-1.41Z"/><path class="cls-3" d="M471.82,133.23v7.11h-1.4v-7.11h-2.61V132h6.67v1.2Z"/><path class="cls-3" d="M482.25,137.57a2.88,2.88,0,0,1-.25,1.25,2.23,2.23,0,0,1-.72.86,3.14,3.14,0,0,1-1.11.5,6,6,0,0,1-1.39.16h-2.67V132h1.41v2.9h1.36a4.35,4.35,0,0,1,2.48.62A2.28,2.28,0,0,1,482.25,137.57Zm-4.73-1.44v3h1.26a2.82,2.82,0,0,0,1.48-.35,1.23,1.23,0,0,0,.57-1.14,1.32,1.32,0,0,0-.51-1.17,2.55,2.55,0,0,0-1.44-.35Zm7.34,4.21h-1.4V132h1.4Z"/><path class="cls-3" d="M494.16,141.56a4.62,4.62,0,0,1-.72,1,2.63,2.63,0,0,1-.9.6,3.08,3.08,0,0,1-1.13.2,3.78,3.78,0,0,1-.6,0,1.86,1.86,0,0,1-.49-.14v-1.34a1.45,1.45,0,0,0,.45.2,2.17,2.17,0,0,0,.59.07,1.57,1.57,0,0,0,1-.28,2.92,2.92,0,0,0,.74-.9L489.69,132h1.56l2.64,7,2.62-7h1.36l-3.1,8.21A11.84,11.84,0,0,1,494.16,141.56Z"/><path class="cls-3" d="M499.26,132h6.66v8.31h-1.41v-7.11h-3.84v7.11h-1.41Z"/><path class="cls-3" d="M511.63,140.5a4.31,4.31,0,0,1-1.58-.29,3.56,3.56,0,0,1-1.28-.84,4.18,4.18,0,0,1-.84-1.35,5.79,5.79,0,0,1,0-3.68,4.18,4.18,0,0,1,.84-1.35,3.68,3.68,0,0,1,1.28-.83,4.31,4.31,0,0,1,1.58-.29,4.38,4.38,0,0,1,1.6.29,3.63,3.63,0,0,1,1.27.83,4,4,0,0,1,.85,1.35,5.62,5.62,0,0,1,0,3.68,4,4,0,0,1-.85,1.35,3.53,3.53,0,0,1-1.27.84A4.38,4.38,0,0,1,511.63,140.5Zm0-1.25a2.66,2.66,0,0,0,1-.19,2.22,2.22,0,0,0,.83-.56,2.66,2.66,0,0,0,.54-.95,5,5,0,0,0,0-2.73,2.66,2.66,0,0,0-.54-.95,2.22,2.22,0,0,0-.83-.56,2.66,2.66,0,0,0-1-.19,2.61,2.61,0,0,0-1,.19,2.15,2.15,0,0,0-.81.56,2.66,2.66,0,0,0-.54.95,5,5,0,0,0,0,2.73,2.66,2.66,0,0,0,.54.95,2.15,2.15,0,0,0,.81.56A2.61,2.61,0,0,0,511.63,139.25Z"/><path class="cls-3" d="M521.55,140.5a3,3,0,0,1-1.66-.45,3.31,3.31,0,0,1-1.11-1.23v4.35h-1.41V132h1.24l.14,1.62a3.39,3.39,0,0,1,1.12-1.3,3,3,0,0,1,1.74-.48,3.66,3.66,0,0,1,1.39.27,3.18,3.18,0,0,1,1.17.8,3.92,3.92,0,0,1,.8,1.34,5.71,5.71,0,0,1,.29,1.9,5.51,5.51,0,0,1-.3,1.91,3.8,3.8,0,0,1-.82,1.34,3.13,3.13,0,0,1-1.18.8A3.76,3.76,0,0,1,521.55,140.5Zm-.21-1.25a2.29,2.29,0,0,0,1.79-.76,4.21,4.21,0,0,0,0-4.59,2.27,2.27,0,0,0-1.79-.78,2.79,2.79,0,0,0-1,.19,2.25,2.25,0,0,0-.82.57,2.62,2.62,0,0,0-.54,1,4.62,4.62,0,0,0,0,2.69,2.75,2.75,0,0,0,.54,1,2.11,2.11,0,0,0,.82.56A2.59,2.59,0,0,0,521.34,139.25Z"/><path class="cls-3" d="M526.81,134.72a2.67,2.67,0,0,1,.26-1.21,2.3,2.3,0,0,1,.72-.83,3.35,3.35,0,0,1,1.1-.49,6.12,6.12,0,0,1,1.4-.16H533v8.31h-1.41v-3H530l-2.13,3h-1.68l2.4-3.36a2.82,2.82,0,0,1-1.33-.79A2.1,2.1,0,0,1,526.81,134.72Zm4.74,1.41v-2.9h-1.26a2.87,2.87,0,0,0-1.48.34,1.17,1.17,0,0,0-.57,1.09,1.27,1.27,0,0,0,.51,1.13,2.69,2.69,0,0,0,1.46.34Z"/><path class="cls-3" d="M534.82,139.14a1.88,1.88,0,0,0,.7-.85,6.18,6.18,0,0,0,.4-1.46,17.93,17.93,0,0,0,.2-2.08c0-.8.07-1.7.1-2.72h5.72v7.11h1.24v3.57H542l-.17-2.37H535.6l-.14,2.37h-1.27v-3.57Zm5.71,0v-5.91h-3a36.22,36.22,0,0,1-.3,3.77,4.85,4.85,0,0,1-.74,2.14Z"/><path class="cls-3" d="M547.9,140.5a4.35,4.35,0,0,1-1.58-.29,3.44,3.44,0,0,1-1.27-.84,3.86,3.86,0,0,1-.84-1.35,5.62,5.62,0,0,1,0-3.68,3.86,3.86,0,0,1,.84-1.35,3.55,3.55,0,0,1,1.27-.83,4.5,4.5,0,0,1,3.18,0,3.55,3.55,0,0,1,1.27.83,3.88,3.88,0,0,1,.85,1.35,5.62,5.62,0,0,1,0,3.68,3.88,3.88,0,0,1-.85,1.35,3.44,3.44,0,0,1-1.27.84A4.38,4.38,0,0,1,547.9,140.5Zm0-1.25a2.63,2.63,0,0,0,1-.19,2.22,2.22,0,0,0,.83-.56,2.66,2.66,0,0,0,.54-.95,4.76,4.76,0,0,0,0-2.73,2.66,2.66,0,0,0-.54-.95,2.22,2.22,0,0,0-.83-.56,2.86,2.86,0,0,0-2,0,2.15,2.15,0,0,0-.81.56,2.5,2.5,0,0,0-.53.95,4.76,4.76,0,0,0,0,2.73,2.5,2.5,0,0,0,.53.95,2.15,2.15,0,0,0,.81.56A2.61,2.61,0,0,0,547.9,139.25Z"/><path class="cls-3" d="M553.46,134.82h3.83v1.28h-3.83Z"/><path class="cls-3" d="M417.58,160.34h-1.4v-3.65a3.39,3.39,0,0,1-1,.52,4.28,4.28,0,0,1-1.29.18,3,3,0,0,1-2.15-.69,2.94,2.94,0,0,1-.75-2.24V152h1.43v2.45a1.76,1.76,0,0,0,.44,1.36,1.87,1.87,0,0,0,1.27.38,3.69,3.69,0,0,0,1.09-.16,2.91,2.91,0,0,0,1-.49V152h1.4Z"/><path class="cls-3" d="M426.5,159.64l-.44.27a4.66,4.66,0,0,1-.62.28,5.23,5.23,0,0,1-.83.22,5.52,5.52,0,0,1-1,.09,4.22,4.22,0,0,1-3.19-1.14,4.44,4.44,0,0,1-1.08-3.18,5.09,5.09,0,0,1,.29-1.81,3.75,3.75,0,0,1,.83-1.35,3.56,3.56,0,0,1,1.24-.85,4.07,4.07,0,0,1,1.57-.3,3.87,3.87,0,0,1,1.6.31,2.85,2.85,0,0,1,1.16.89,3.51,3.51,0,0,1,.63,1.47,6,6,0,0,1,0,2h-5.86a2.89,2.89,0,0,0,.8,2,3,3,0,0,0,2.15.67,4.43,4.43,0,0,0,1.64-.27,6.54,6.54,0,0,0,1.16-.6Zm-3.3-6.52a2.36,2.36,0,0,0-1.57.56,2.72,2.72,0,0,0-.83,1.7h4.46a2.06,2.06,0,0,0-.52-1.71A2.17,2.17,0,0,0,423.2,153.12Z"/><path class="cls-3" d="M433.92,156.66h-4v3.68h-1.4V152h1.4v3.43h4V152h1.41v8.31h-1.41Z"/><path class="cls-3" d="M443.78,157.57a2.88,2.88,0,0,1-.26,1.25,2.23,2.23,0,0,1-.72.86,3.17,3.17,0,0,1-1.1.5,6.18,6.18,0,0,1-1.4.16h-2.67V152H439v2.9h1.36a4.33,4.33,0,0,1,2.48.62A2.29,2.29,0,0,1,443.78,157.57ZM439,156.13v3h1.26a2.82,2.82,0,0,0,1.48-.35,1.23,1.23,0,0,0,.57-1.14,1.32,1.32,0,0,0-.51-1.17,2.55,2.55,0,0,0-1.44-.35Zm7.34,4.21H445V152h1.4Z"/><path class="cls-3" d="M453.61,158.42l4.44-6.39h1.42v8.31h-1.41V154l-4.41,6.37h-1.44V152h1.4Z"/><path class="cls-3" d="M465.29,152H472v8.31h-1.41v-7.11H466.7v7.11h-1.41Z"/><path class="cls-3" d="M478.43,160.5a3,3,0,0,1-1.66-.45,3.31,3.31,0,0,1-1.11-1.23v4.35h-1.41V152h1.24l.14,1.62a3.39,3.39,0,0,1,1.12-1.3,3,3,0,0,1,1.74-.48,3.66,3.66,0,0,1,1.39.27,3.18,3.18,0,0,1,1.17.8,3.92,3.92,0,0,1,.8,1.34,5.71,5.71,0,0,1,.29,1.9,5.51,5.51,0,0,1-.3,1.91,3.8,3.8,0,0,1-.82,1.34,3.13,3.13,0,0,1-1.18.8A3.76,3.76,0,0,1,478.43,160.5Zm-.21-1.25a2.29,2.29,0,0,0,1.79-.76,4.21,4.21,0,0,0,0-4.59,2.27,2.27,0,0,0-1.79-.78,2.79,2.79,0,0,0-1,.19,2.25,2.25,0,0,0-.82.57,2.62,2.62,0,0,0-.54,1,4.62,4.62,0,0,0,0,2.69,2.75,2.75,0,0,0,.54,1,2.11,2.11,0,0,0,.82.56A2.59,2.59,0,0,0,478.22,159.25Z"/><path class="cls-3" d="M487.26,160.5a4.35,4.35,0,0,1-1.58-.29,3.44,3.44,0,0,1-1.27-.84,3.86,3.86,0,0,1-.84-1.35,5.62,5.62,0,0,1,0-3.68,3.86,3.86,0,0,1,.84-1.35,3.55,3.55,0,0,1,1.27-.83,4.5,4.5,0,0,1,3.18,0,3.55,3.55,0,0,1,1.27.83,4,4,0,0,1,.85,1.35,5.62,5.62,0,0,1,0,3.68,4,4,0,0,1-.85,1.35,3.44,3.44,0,0,1-1.27.84A4.38,4.38,0,0,1,487.26,160.5Zm0-1.25a2.63,2.63,0,0,0,1-.19,2.22,2.22,0,0,0,.83-.56,2.66,2.66,0,0,0,.54-.95,5,5,0,0,0,0-2.73,2.66,2.66,0,0,0-.54-.95,2.22,2.22,0,0,0-.83-.56,2.86,2.86,0,0,0-2.05,0,2.15,2.15,0,0,0-.81.56,2.66,2.66,0,0,0-.54.95,5,5,0,0,0,0,2.73,2.66,2.66,0,0,0,.54.95,2.15,2.15,0,0,0,.81.56A2.61,2.61,0,0,0,487.26,159.25Z"/><path class="cls-3" d="M494.41,158.42l4.44-6.39h1.42v8.31h-1.41V154l-4.41,6.37H493V152h1.4Z"/><path class="cls-3" d="M508,156.66h-4v3.68h-1.41V152H504v3.43h4V152h1.41v8.31H508Z"/><path class="cls-3" d="M511.26,159.14a1.89,1.89,0,0,0,.71-.85,6.18,6.18,0,0,0,.4-1.46,20.44,20.44,0,0,0,.2-2.08c0-.8.07-1.7.1-2.72h5.71v7.11h1.25v3.57H518.4l-.18-2.37h-6.17l-.15,2.37h-1.26v-3.57Zm5.71,0v-5.91h-3a34,34,0,0,1-.29,3.77,4.84,4.84,0,0,1-.75,2.14Z"/><path class="cls-3" d="M527.55,159.64l-.43.27a4.85,4.85,0,0,1-.63.28,5.23,5.23,0,0,1-.83.22,5.52,5.52,0,0,1-1,.09,4.18,4.18,0,0,1-3.18-1.14,4.4,4.4,0,0,1-1.09-3.18,5.09,5.09,0,0,1,.3-1.81,3.74,3.74,0,0,1,.82-1.35,3.6,3.6,0,0,1,1.25-.85,4,4,0,0,1,1.57-.3,3.82,3.82,0,0,1,1.59.31,2.85,2.85,0,0,1,1.16.89,3.39,3.39,0,0,1,.63,1.47,6,6,0,0,1,0,2H521.8a2.85,2.85,0,0,0,.81,2,3,3,0,0,0,2.14.67,4.53,4.53,0,0,0,1.65-.27,6.42,6.42,0,0,0,1.15-.6Zm-3.3-6.52a2.33,2.33,0,0,0-1.56.56,2.68,2.68,0,0,0-.84,1.7h4.47a2.1,2.1,0,0,0-.53-1.71A2.17,2.17,0,0,0,524.25,153.12Z"/><path class="cls-3" d="M531.69,156.8H531v3.54h-1.41V152H531v3.57h.8l2.91-3.57h1.6l-3.41,4.1,3.47,4.21h-1.71Z"/><path class="cls-3" d="M541.08,160.5a4.76,4.76,0,0,1-1.73-.3,3.55,3.55,0,0,1-2.15-2.2,5.15,5.15,0,0,1-.29-1.82,5.09,5.09,0,0,1,.3-1.81A3.62,3.62,0,0,1,538,153a3.75,3.75,0,0,1,1.33-.85,5,5,0,0,1,1.78-.3,5.68,5.68,0,0,1,1.41.17,3,3,0,0,1,1.05.49v1.26a3.91,3.91,0,0,0-1.14-.5,5.15,5.15,0,0,0-1.3-.17,2.71,2.71,0,0,0-2.14.76,3.36,3.36,0,0,0-.68,2.3,3.53,3.53,0,0,0,.65,2.32,2.63,2.63,0,0,0,2.08.75,4.67,4.67,0,0,0,1.39-.19,5.34,5.34,0,0,0,1.14-.47v1.26a4.94,4.94,0,0,1-1.08.46A5.25,5.25,0,0,1,541.08,160.5Z"/><path class="cls-3" d="M546.91,158.42l4.43-6.39h1.42v8.31h-1.4V154l-4.42,6.37H545.5V152h1.41Z"/><path class="cls-3" d="M554.88,154.82h3.84v1.28h-3.84Z"/><path class="cls-3" d="M415.33,180.5a3,3,0,0,1-1.66-.45,3.31,3.31,0,0,1-1.11-1.23v4.35h-1.41V172h1.23l.15,1.62a3.39,3.39,0,0,1,1.12-1.3,3,3,0,0,1,1.74-.48,3.7,3.7,0,0,1,1.39.27,3.06,3.06,0,0,1,1.16.8,3.63,3.63,0,0,1,.8,1.34,5.45,5.45,0,0,1,.3,1.9,5.51,5.51,0,0,1-.3,1.91,4,4,0,0,1-.82,1.34,3.21,3.21,0,0,1-1.18.8A3.76,3.76,0,0,1,415.33,180.5Zm-.21-1.25a2.25,2.25,0,0,0,1.78-.76,4.21,4.21,0,0,0,0-4.59,2.23,2.23,0,0,0-1.78-.78,2.89,2.89,0,0,0-1,.19,2.3,2.3,0,0,0-.81.57,2.78,2.78,0,0,0-.55,1,4.62,4.62,0,0,0,0,2.69,2.93,2.93,0,0,0,.55,1,2.15,2.15,0,0,0,.81.56A2.68,2.68,0,0,0,415.12,179.25Z"/><path class="cls-3" d="M424.16,180.5a4.31,4.31,0,0,1-1.58-.29,3.48,3.48,0,0,1-1.28-.84,4.18,4.18,0,0,1-.84-1.35,5.79,5.79,0,0,1,0-3.68,4.18,4.18,0,0,1,.84-1.35,3.59,3.59,0,0,1,1.28-.83,4.31,4.31,0,0,1,1.58-.29,4.38,4.38,0,0,1,1.6.29A3.63,3.63,0,0,1,427,173a4,4,0,0,1,.85,1.35,5.62,5.62,0,0,1,0,3.68,4,4,0,0,1-.85,1.35,3.53,3.53,0,0,1-1.27.84A4.38,4.38,0,0,1,424.16,180.5Zm0-1.25a2.66,2.66,0,0,0,1-.19,2.22,2.22,0,0,0,.83-.56,2.66,2.66,0,0,0,.54-.95,5,5,0,0,0,0-2.73,2.66,2.66,0,0,0-.54-.95,2.22,2.22,0,0,0-.83-.56,2.66,2.66,0,0,0-1-.19,2.61,2.61,0,0,0-1,.19,2.15,2.15,0,0,0-.81.56,2.66,2.66,0,0,0-.54.95,5,5,0,0,0,0,2.73,2.66,2.66,0,0,0,.54.95,2.15,2.15,0,0,0,.81.56A2.61,2.61,0,0,0,424.16,179.25Z"/><path class="cls-3" d="M429.9,172H433a4.12,4.12,0,0,1,2.27.52,1.84,1.84,0,0,1,.77,1.63,1.73,1.73,0,0,1-.38,1.17,2.05,2.05,0,0,1-1.06.64,1.83,1.83,0,0,1,1.77,2,2.21,2.21,0,0,1-.25,1.1,2.09,2.09,0,0,1-.71.74,3,3,0,0,1-1.08.42,7.22,7.22,0,0,1-1.36.13H429.9Zm1.41,1.2v2.26h1.57a2.57,2.57,0,0,0,1.29-.29.92.92,0,0,0,.49-.83.94.94,0,0,0-.44-.9,2.53,2.53,0,0,0-1.23-.24Zm0,3.38v2.53H433a5,5,0,0,0,.81-.06,1.81,1.81,0,0,0,.62-.2,1,1,0,0,0,.41-.38,1.1,1.1,0,0,0,.14-.59,1.06,1.06,0,0,0-.49-1,3.06,3.06,0,0,0-1.49-.29Z"/><path class="cls-3" d="M443.36,178.75a4.44,4.44,0,0,1-.37.6,2.52,2.52,0,0,1-.56.57,3,3,0,0,1-.79.42,3.38,3.38,0,0,1-1.06.16,2.57,2.57,0,0,1-1.81-.63,2.36,2.36,0,0,1-.69-1.82,2.25,2.25,0,0,1,.95-2,4.83,4.83,0,0,1,2.71-.64h1.56v-.69a1.49,1.49,0,0,0-.45-1.23,2.43,2.43,0,0,0-1.54-.37,4.09,4.09,0,0,0-1.45.25,6.75,6.75,0,0,0-1.24.57v-1.27a6.46,6.46,0,0,1,1.21-.53,5,5,0,0,1,1.67-.27,3.8,3.8,0,0,1,2.39.65,2.41,2.41,0,0,1,.81,2V179c0,.1,0,.21,0,.33s0,.25,0,.38,0,.25,0,.36,0,.2,0,.28H443.5a5.27,5.27,0,0,1-.08-.63,6.62,6.62,0,0,1,0-.72Zm-2.48.5A2.19,2.19,0,0,0,442,179a2.75,2.75,0,0,0,1.17-1.35,1.87,1.87,0,0,0,.13-.49v-.61h-1.41a3.5,3.5,0,0,0-1.83.36,1.21,1.21,0,0,0-.57,1.09,1.27,1.27,0,0,0,.33.91A1.4,1.4,0,0,0,440.88,179.25Z"/><path class="cls-3" d="M452.34,176.66h-4v3.68h-1.41V172h1.41v3.43h4V172h1.4v8.31h-1.4Z"/><path class="cls-3" d="M462.19,177.57a2.88,2.88,0,0,1-.25,1.25,2.42,2.42,0,0,1-.72.86,3.14,3.14,0,0,1-1.11.5,6.09,6.09,0,0,1-1.39.16h-2.67V172h1.41v2.9h1.36a4.35,4.35,0,0,1,2.48.62A2.31,2.31,0,0,1,462.19,177.57Zm-4.73-1.44v3h1.26a2.82,2.82,0,0,0,1.48-.35,1.23,1.23,0,0,0,.57-1.14,1.32,1.32,0,0,0-.51-1.17,2.6,2.6,0,0,0-1.44-.35Zm7.34,4.21h-1.41V172h1.41Z"/><path class="cls-3" d="M467.87,180.43a1,1,0,0,1-1-1,1,1,0,0,1,.29-.73,1.1,1.1,0,0,1,1.49,0,1,1,0,0,1-.74,1.74Z"/><path class="cls-3" d="M474.64,168.87h3.89a5.36,5.36,0,0,1,2.87.63,2.4,2.4,0,0,1,1,2.17,3,3,0,0,1-.17,1.08,2.33,2.33,0,0,1-.46.78,2.24,2.24,0,0,1-.72.53,3.71,3.71,0,0,1-.94.32,3.61,3.61,0,0,1,2,.78,2.4,2.4,0,0,1,.68,1.87,3.25,3.25,0,0,1-.33,1.52,2.8,2.8,0,0,1-.9,1,4.07,4.07,0,0,1-1.36.57,7.17,7.17,0,0,1-1.71.19h-3.86Zm1.5,1.35v3.54h2.28a3.84,3.84,0,0,0,1-.12,2,2,0,0,0,.76-.37,1.66,1.66,0,0,0,.51-.63,2.06,2.06,0,0,0,.18-.9,1.22,1.22,0,0,0-.61-1.2,3.79,3.79,0,0,0-1.72-.32Zm0,4.9V179h2.36a5.35,5.35,0,0,0,1.1-.1,2.52,2.52,0,0,0,.86-.32A1.56,1.56,0,0,0,481,178a1.83,1.83,0,0,0,.2-.91,1.65,1.65,0,0,0-.69-1.52,4.43,4.43,0,0,0-2.2-.42Z"/><path class="cls-3" d="M488.17,180.5a4.35,4.35,0,0,1-1.58-.29,3.53,3.53,0,0,1-1.27-.84,3.86,3.86,0,0,1-.84-1.35,5.62,5.62,0,0,1,0-3.68,3.86,3.86,0,0,1,.84-1.35,3.63,3.63,0,0,1,1.27-.83,4.35,4.35,0,0,1,1.58-.29,4.47,4.47,0,0,1,1.61.29,3.63,3.63,0,0,1,1.27.83,4.2,4.2,0,0,1,.85,1.35,5.62,5.62,0,0,1,0,3.68,4.2,4.2,0,0,1-.85,1.35,3.53,3.53,0,0,1-1.27.84A4.47,4.47,0,0,1,488.17,180.5Zm0-1.25a2.71,2.71,0,0,0,1-.19,2.18,2.18,0,0,0,.82-.56,2.53,2.53,0,0,0,.55-.95,5,5,0,0,0,0-2.73,2.53,2.53,0,0,0-.55-.95,2.18,2.18,0,0,0-.82-.56,2.71,2.71,0,0,0-1-.19,2.61,2.61,0,0,0-1,.19,2.15,2.15,0,0,0-.81.56,2.64,2.64,0,0,0-.53.95,5,5,0,0,0,0,2.73,2.64,2.64,0,0,0,.53.95,2.15,2.15,0,0,0,.81.56A2.61,2.61,0,0,0,488.17,179.25Z"/><path class="cls-3" d="M499.73,177.92a2.43,2.43,0,0,1-.28,1.19,2.33,2.33,0,0,1-.76.8,3.24,3.24,0,0,1-1.11.45,6.62,6.62,0,0,1-2.93-.05,3.81,3.81,0,0,1-1.1-.47v-1.26a4.17,4.17,0,0,0,1.19.49,5.77,5.77,0,0,0,1.48.18,3.48,3.48,0,0,0,1.53-.3,1.19,1.19,0,0,0,.1-2,3.29,3.29,0,0,0-1.59-.3h-1.11V175.5h1.15a2.32,2.32,0,0,0,1.35-.32,1,1,0,0,0,.46-.92.93.93,0,0,0-.15-.54,1.18,1.18,0,0,0-.41-.35,1.76,1.76,0,0,0-.6-.19,4.23,4.23,0,0,0-.73-.06,4.92,4.92,0,0,0-1.36.18,4.11,4.11,0,0,0-1.15.49v-1.26a4.21,4.21,0,0,1,1.08-.47,5.92,5.92,0,0,1,1.55-.19,3.77,3.77,0,0,1,2.29.58,1.92,1.92,0,0,1,.78,1.66,1.81,1.81,0,0,1-.44,1.28,2.41,2.41,0,0,1-1.24.64,2.47,2.47,0,0,1,1.49.62A1.69,1.69,0,0,1,499.73,177.92Z"/><path class="cls-3" d="M509.71,173.67l-2.81,5.74h-1.12l-2.66-5.78v6.71h-1.33V172h2.1l2.54,5.57,2.72-5.57h2v8.31h-1.39Z"/><path class="cls-3" d="M516.82,180.5a4.36,4.36,0,0,1-1.59-.29,3.53,3.53,0,0,1-1.27-.84,3.86,3.86,0,0,1-.84-1.35,5.79,5.79,0,0,1,0-3.68A3.86,3.86,0,0,1,514,173a3.63,3.63,0,0,1,1.27-.83,4.36,4.36,0,0,1,1.59-.29,4.46,4.46,0,0,1,1.6.29,3.63,3.63,0,0,1,1.27.83,4.2,4.2,0,0,1,.85,1.35,5.62,5.62,0,0,1,0,3.68,4.2,4.2,0,0,1-.85,1.35,3.53,3.53,0,0,1-1.27.84A4.46,4.46,0,0,1,516.82,180.5Zm0-1.25a2.7,2.7,0,0,0,1-.19,2.18,2.18,0,0,0,.82-.56,2.53,2.53,0,0,0,.55-.95,5,5,0,0,0,0-2.73,2.53,2.53,0,0,0-.55-.95,2.18,2.18,0,0,0-.82-.56,2.7,2.7,0,0,0-1-.19,2.63,2.63,0,0,0-1,.19,2.15,2.15,0,0,0-.81.56,2.64,2.64,0,0,0-.53.95,5,5,0,0,0,0,2.73,2.64,2.64,0,0,0,.53.95,2.15,2.15,0,0,0,.81.56A2.63,2.63,0,0,0,516.82,179.25Z"/><path class="cls-3" d="M527.89,172v3.57h.75l2.64-3.57h1.55l-3.08,4.07,3.2,4.24h-1.72l-2.65-3.54h-.69v3.54h-1.41V176.8h-.7l-2.69,3.54h-1.67l3.2-4.2L521.54,172h1.61l2.6,3.57h.73V172Z"/><path class="cls-3" d="M539.86,176.66h-4v3.68h-1.41V172h1.41v3.43h4V172h1.4v8.31h-1.4Z"/><path class="cls-3" d="M548.43,178.75a3.62,3.62,0,0,1-.37.6,2.52,2.52,0,0,1-.56.57,2.81,2.81,0,0,1-.79.42,3.38,3.38,0,0,1-1.06.16,2.57,2.57,0,0,1-1.81-.63,2.36,2.36,0,0,1-.69-1.82,2.25,2.25,0,0,1,1-2,4.84,4.84,0,0,1,2.72-.64h1.55v-.69a1.49,1.49,0,0,0-.45-1.23,2.43,2.43,0,0,0-1.54-.37,4.13,4.13,0,0,0-1.45.25,6.36,6.36,0,0,0-1.23.57v-1.27a6.05,6.05,0,0,1,1.2-.53,5,5,0,0,1,1.68-.27,3.77,3.77,0,0,1,2.38.65,2.42,2.42,0,0,1,.82,2v4.79c0,.12,0,.25,0,.38s0,.25,0,.36,0,.2,0,.28h-1.28a3.61,3.61,0,0,1-.09-.63,6.62,6.62,0,0,1,0-.72Zm-2.48.5a2.19,2.19,0,0,0,1.12-.27,2.81,2.81,0,0,0,.75-.64,2.54,2.54,0,0,0,.42-.71,1.53,1.53,0,0,0,.13-.49v-.61H547a3.54,3.54,0,0,0-1.83.36,1.21,1.21,0,0,0-.57,1.09,1.24,1.24,0,0,0,.34.91A1.36,1.36,0,0,0,546,179.25Z"/><path class="cls-3" d="M414.56,200.5a4.31,4.31,0,0,1-1.58-.29,3.56,3.56,0,0,1-1.28-.84,4.18,4.18,0,0,1-.84-1.35,5.79,5.79,0,0,1,0-3.68,4.18,4.18,0,0,1,.84-1.35,3.68,3.68,0,0,1,1.28-.83,4.31,4.31,0,0,1,1.58-.29,4.38,4.38,0,0,1,1.6.29,3.63,3.63,0,0,1,1.27.83,4,4,0,0,1,.85,1.35,5.62,5.62,0,0,1,0,3.68,4,4,0,0,1-.85,1.35,3.53,3.53,0,0,1-1.27.84A4.38,4.38,0,0,1,414.56,200.5Zm0-1.25a2.66,2.66,0,0,0,1-.19,2.22,2.22,0,0,0,.83-.56,2.66,2.66,0,0,0,.54-.95,5,5,0,0,0,0-2.73,2.66,2.66,0,0,0-.54-.95,2.22,2.22,0,0,0-.83-.56,2.66,2.66,0,0,0-1-.19,2.61,2.61,0,0,0-1,.19,2.15,2.15,0,0,0-.81.56,2.66,2.66,0,0,0-.54.95,5,5,0,0,0,0,2.73,2.66,2.66,0,0,0,.54.95,2.15,2.15,0,0,0,.81.56A2.61,2.61,0,0,0,414.56,199.25Z"/><path class="cls-3" d="M420.3,192H427v8.31h-1.41v-7.11h-3.84v7.11H420.3Z"/><path class="cls-3" d="M435.87,199.64l-.43.27a5.33,5.33,0,0,1-.62.28,5.68,5.68,0,0,1-.84.22,5.44,5.44,0,0,1-1,.09,4.21,4.21,0,0,1-3.18-1.14,4.44,4.44,0,0,1-1.09-3.18,5.09,5.09,0,0,1,.3-1.81,3.88,3.88,0,0,1,.82-1.35,3.6,3.6,0,0,1,1.25-.85,4,4,0,0,1,1.57-.3,3.87,3.87,0,0,1,1.6.31,2.92,2.92,0,0,1,1.16.89,3.5,3.5,0,0,1,.62,1.47,6,6,0,0,1,0,2h-5.85a2.85,2.85,0,0,0,.8,2,3,3,0,0,0,2.14.67,4.53,4.53,0,0,0,1.65-.27,6.42,6.42,0,0,0,1.15-.6Zm-3.29-6.52a2.36,2.36,0,0,0-1.57.56,2.62,2.62,0,0,0-.83,1.7h4.46a2.06,2.06,0,0,0-.53-1.71A2.13,2.13,0,0,0,432.58,193.12Z"/><path class="cls-3" d="M442.05,200.5a3,3,0,0,1-1.66-.45,3.31,3.31,0,0,1-1.11-1.23v4.35h-1.41V192h1.23l.15,1.62a3.39,3.39,0,0,1,1.12-1.3,3,3,0,0,1,1.74-.48,3.7,3.7,0,0,1,1.39.27,3.18,3.18,0,0,1,1.17.8,3.75,3.75,0,0,1,.79,1.34,5.45,5.45,0,0,1,.3,1.9,5.51,5.51,0,0,1-.3,1.91,4,4,0,0,1-.82,1.34,3.21,3.21,0,0,1-1.18.8A3.76,3.76,0,0,1,442.05,200.5Zm-.21-1.25a2.25,2.25,0,0,0,1.78-.76,4.21,4.21,0,0,0,0-4.59,2.23,2.23,0,0,0-1.78-.78,2.89,2.89,0,0,0-1,.19,2.3,2.3,0,0,0-.81.57,2.78,2.78,0,0,0-.55,1,4.62,4.62,0,0,0,0,2.69,2.93,2.93,0,0,0,.55,1,2.15,2.15,0,0,0,.81.56A2.68,2.68,0,0,0,441.84,199.25Z"/><path class="cls-3" d="M452.26,198.75a4.44,4.44,0,0,1-.37.6,2.74,2.74,0,0,1-.56.57,3.12,3.12,0,0,1-.79.42,3.44,3.44,0,0,1-1.07.16,2.59,2.59,0,0,1-1.81-.63,2.39,2.39,0,0,1-.68-1.82,2.23,2.23,0,0,1,.95-2,4.8,4.8,0,0,1,2.71-.64h1.55v-.69a1.49,1.49,0,0,0-.45-1.23,2.4,2.4,0,0,0-1.53-.37,4.19,4.19,0,0,0-1.46.25,6.36,6.36,0,0,0-1.23.57v-1.27a6.17,6.17,0,0,1,1.21-.53,4.92,4.92,0,0,1,1.67-.27,3.75,3.75,0,0,1,2.38.65,2.39,2.39,0,0,1,.82,2V199c0,.1,0,.21,0,.33s0,.25,0,.38,0,.25,0,.36,0,.2,0,.28H452.4q0-.22-.09-.63c0-.28,0-.51,0-.72Zm-2.48.5a2.21,2.21,0,0,0,1.12-.27,2.81,2.81,0,0,0,.75-.64,2.49,2.49,0,0,0,.41-.71,1.53,1.53,0,0,0,.13-.49v-.61h-1.41a3.54,3.54,0,0,0-1.83.36,1.21,1.21,0,0,0-.57,1.09,1.28,1.28,0,0,0,.34.91A1.39,1.39,0,0,0,449.78,199.25Z"/><path class="cls-3" d="M462.58,200.34h-6.77V192h1.41v7.11h4.08V192h1.4v7.11H464v3.57h-1.2Z"/><path class="cls-3" d="M466.83,198.42l4.43-6.39h1.43v8.31h-1.41V194l-4.42,6.37h-1.44V192h1.41Z"/><path class="cls-3" d="M475,194.72a2.67,2.67,0,0,1,.26-1.21,2.3,2.3,0,0,1,.72-.83,3.35,3.35,0,0,1,1.1-.49,6.09,6.09,0,0,1,1.39-.16h2.68v8.31h-1.41v-3h-1.52l-2.13,3H474.4l2.4-3.36a2.85,2.85,0,0,1-1.34-.79A2.14,2.14,0,0,1,475,194.72Zm4.74,1.41v-2.9h-1.27a2.86,2.86,0,0,0-1.47.34,1.17,1.17,0,0,0-.57,1.09,1.27,1.27,0,0,0,.51,1.13,2.65,2.65,0,0,0,1.45.34Z"/><path class="cls-3" d="M490.54,200.5a4.76,4.76,0,0,1-1.73-.3,3.62,3.62,0,0,1-1.32-.85,3.5,3.5,0,0,1-.83-1.35,5.15,5.15,0,0,1-.29-1.82,5.33,5.33,0,0,1,.29-1.81,3.59,3.59,0,0,1,2.17-2.2,5,5,0,0,1,1.78-.3A5.68,5.68,0,0,1,492,192a3,3,0,0,1,1.05.49v1.26a3.91,3.91,0,0,0-1.14-.5,5.17,5.17,0,0,0-1.31-.17,2.7,2.7,0,0,0-2.13.76,3.31,3.31,0,0,0-.68,2.3,3.53,3.53,0,0,0,.65,2.32,2.63,2.63,0,0,0,2.08.75,4.72,4.72,0,0,0,1.39-.19,5.34,5.34,0,0,0,1.14-.47v1.26a4.94,4.94,0,0,1-1.08.46A5.25,5.25,0,0,1,490.54,200.5Z"/><path class="cls-3" d="M499.14,200.5a3,3,0,0,1-1.66-.45,3.23,3.23,0,0,1-1.11-1.23v4.35H495V192h1.23l.15,1.62a3.31,3.31,0,0,1,1.12-1.3,3,3,0,0,1,1.74-.48,3.61,3.61,0,0,1,1.38.27,3,3,0,0,1,1.17.8,3.76,3.76,0,0,1,.8,1.34,5.45,5.45,0,0,1,.3,1.9,5.28,5.28,0,0,1-.31,1.91,3.78,3.78,0,0,1-.81,1.34,3.17,3.17,0,0,1-1.19.8A3.67,3.67,0,0,1,499.14,200.5Zm-.21-1.25a2.26,2.26,0,0,0,1.78-.76,4.21,4.21,0,0,0,0-4.59,2.25,2.25,0,0,0-1.78-.78,2.85,2.85,0,0,0-1,.19,2.3,2.3,0,0,0-.81.57,2.63,2.63,0,0,0-.55,1,4.62,4.62,0,0,0,0,2.69,2.77,2.77,0,0,0,.55,1,2.15,2.15,0,0,0,.81.56A2.64,2.64,0,0,0,498.93,199.25Z"/><path class="cls-3" d="M511.17,199.64l-.43.27a5.55,5.55,0,0,1-.63.28,5.23,5.23,0,0,1-.83.22,5.52,5.52,0,0,1-1,.09,4.18,4.18,0,0,1-3.18-1.14,4.4,4.4,0,0,1-1.09-3.18,5.33,5.33,0,0,1,.29-1.81,3.9,3.9,0,0,1,.83-1.35,3.66,3.66,0,0,1,1.24-.85,4.1,4.1,0,0,1,1.57-.3,3.87,3.87,0,0,1,1.6.31,2.85,2.85,0,0,1,1.16.89,3.51,3.51,0,0,1,.63,1.47,6,6,0,0,1,0,2h-5.86a2.89,2.89,0,0,0,.8,2,3,3,0,0,0,2.15.67A4.53,4.53,0,0,0,510,199a6.78,6.78,0,0,0,1.15-.6Zm-3.3-6.52a2.36,2.36,0,0,0-1.57.56,2.72,2.72,0,0,0-.83,1.7h4.47a2.1,2.1,0,0,0-.53-1.71A2.17,2.17,0,0,0,507.87,193.12Z"/><path class="cls-3" d="M519.06,197.92a2.43,2.43,0,0,1-.28,1.19,2.33,2.33,0,0,1-.76.8,3.21,3.21,0,0,1-1.12.45,6.28,6.28,0,0,1-1.32.14,6.38,6.38,0,0,1-1.6-.19,3.81,3.81,0,0,1-1.1-.47v-1.26a4.11,4.11,0,0,0,1.18.49,5.91,5.91,0,0,0,1.49.18,3.48,3.48,0,0,0,1.53-.3,1.19,1.19,0,0,0,.1-2,3.31,3.31,0,0,0-1.6-.3h-1.1V195.5h1.15a2.32,2.32,0,0,0,1.35-.32,1,1,0,0,0,.46-.92.93.93,0,0,0-.15-.54,1.18,1.18,0,0,0-.41-.35,1.76,1.76,0,0,0-.6-.19,4.23,4.23,0,0,0-.73-.06,5,5,0,0,0-1.37.18,4.18,4.18,0,0,0-1.14.49v-1.26a4.21,4.21,0,0,1,1.08-.47,5.9,5.9,0,0,1,1.54-.19,3.79,3.79,0,0,1,2.3.58,1.92,1.92,0,0,1,.78,1.66,1.81,1.81,0,0,1-.44,1.28,2.41,2.41,0,0,1-1.24.64,2.47,2.47,0,0,1,1.49.62A1.69,1.69,0,0,1,519.06,197.92Z"/><path class="cls-3" d="M526,198.75a4.33,4.33,0,0,1-.36.6,2.74,2.74,0,0,1-.56.57,3,3,0,0,1-.8.42,3.33,3.33,0,0,1-1.06.16,2.57,2.57,0,0,1-1.81-.63,2.36,2.36,0,0,1-.69-1.82,2.23,2.23,0,0,1,1-2,4.78,4.78,0,0,1,2.71-.64h1.55v-.69a1.49,1.49,0,0,0-.45-1.23,2.42,2.42,0,0,0-1.53-.37,4.15,4.15,0,0,0-1.46.25,6.36,6.36,0,0,0-1.23.57v-1.27a6.17,6.17,0,0,1,1.21-.53,4.92,4.92,0,0,1,1.67-.27,3.77,3.77,0,0,1,2.38.65,2.39,2.39,0,0,1,.82,2V199c0,.1,0,.21,0,.33s0,.25,0,.38,0,.25,0,.36,0,.2,0,.28h-1.28q0-.22-.09-.63a6.62,6.62,0,0,1,0-.72Zm-2.48.5a2.19,2.19,0,0,0,1.12-.27,3,3,0,0,0,.76-.64,2.49,2.49,0,0,0,.41-.71,1.53,1.53,0,0,0,.13-.49v-.61h-1.41a3.54,3.54,0,0,0-1.83.36,1.21,1.21,0,0,0-.57,1.09,1.24,1.24,0,0,0,.34.91A1.36,1.36,0,0,0,523.5,199.25Z"/><path class="cls-3" d="M530.3,200.43a1,1,0,0,1-1-1,1,1,0,0,1,.29-.73,1.1,1.1,0,0,1,1.49,0,1,1,0,0,1-.74,1.74Z"/></g></g></svg>